<svg width="23" height="23" viewBox="0 0 23 23" fill="none" xmlns="http://www.w3.org/2000/svg">
<path d="M11.25 0.5C5.0355 0.5 0 5.5355 0 11.75C0 17.9645 5.0355 23 11.25 23C17.4645 23 22.5 17.9645 22.5 11.75C22.5 5.5355 17.4645 0.5 11.25 0.5ZM20.946 11H17.9745C17.8455 7.7525 16.8975 4.883 15.4635 2.9675C18.519 4.436 20.6715 7.4525 20.946 11ZM16.4625 11H12V2.111C14.4105 2.753 16.2735 6.437 16.4625 11ZM10.5 2.111V11H6.0375C6.2265 6.437 8.0895 2.753 10.5 2.111ZM7.038 2.9675C5.6025 4.883 4.656 7.7525 4.527 11H1.554C1.8285 7.4525 3.981 4.436 7.038 2.9675ZM1.554 12.5H4.5255C4.6545 15.7475 5.6025 18.617 7.0365 20.5325C3.981 19.064 1.8285 16.0475 1.554 12.5ZM6.0375 12.5H10.5V21.389C8.0895 20.747 6.2265 17.063 6.0375 12.5ZM12 21.389V12.5H16.4625C16.2735 17.063 14.4105 20.747 12 21.389ZM15.462 20.5325C16.8975 18.617 17.844 15.7475 17.973 12.5H20.9445C20.6715 16.0475 18.519 19.064 15.462 20.5325Z" fill="#333333"/>
</svg>
