<svg width="40" height="40" xmlns="http://www.w3.org/2000/svg" style="vector-effect: non-scaling-stroke;">
 <g>
  <title>Layer 1</title>
  <g>
   <circle fill="#EAECF8" r="20" cy="20" cx="20"/>
  </g>
  <g>
   <path fill="#333333" d="m20,8.75c-6.2145,0 -11.25,5.0355 -11.25,11.25c0,6.2145 5.0355,11.25 11.25,11.25c6.2145,0 11.25,-5.0355 11.25,-11.25c0,-6.2145 -5.0355,-11.25 -11.25,-11.25zm9.696,10.5l-2.9715,0c-0.129,-3.2475 -1.077,-6.117 -2.511,-8.0325c3.0555,1.4685 5.208,4.485 5.4825,8.0325zm-4.4835,0l-4.4625,0l0,-8.889c2.4105,0.642 4.2735,4.326 4.4625,8.889zm-5.9625,-8.889l0,8.889l-4.4625,0c0.189,-4.563 2.052,-8.247 4.4625,-8.889zm-3.462,0.8565c-1.4355,1.9155 -2.382,4.785 -2.511,8.0325l-2.973,0c0.2745,-3.5475 2.427,-6.564 5.484,-8.0325zm-5.484,9.5325l2.9715,0c0.129,3.2475 1.077,6.117 2.511,8.0325c-3.0555,-1.4685 -5.208,-4.485 -5.4825,-8.0325zm4.4835,0l4.4625,0l0,8.889c-2.4105,-0.642 -4.2735,-4.326 -4.4625,-8.889zm5.9625,8.889l0,-8.889l4.4625,0c-0.189,4.563 -2.052,8.247 -4.4625,8.889zm3.462,-0.8565c1.4355,-1.9155 2.382,-4.785 2.511,-8.0325l2.9715,0c-0.273,3.5475 -2.4255,6.564 -5.4825,8.0325z"/>
  </g>
 </g>

</svg>