<svg width="524" height="78" viewBox="0 0 524 78" fill="none" xmlns="http://www.w3.org/2000/svg">
<rect x="0.5" y="0.5" width="523" height="77" rx="3.5" fill="#D6F3FB"/>
<path d="M17.872 18.464V28H15.952V18.464H12.272V16.656H21.568V18.464H17.872ZM22.9958 28V20.208H24.8358V28H22.9958ZM22.7078 17.472C22.7078 17.1307 22.8251 16.8427 23.0598 16.608C23.2944 16.3733 23.5771 16.256 23.9078 16.256C24.2491 16.256 24.5371 16.3733 24.7718 16.608C25.0064 16.8427 25.1238 17.1307 25.1238 17.472C25.1238 17.8133 25.0064 18.1013 24.7718 18.336C24.5371 18.56 24.2491 18.672 23.9078 18.672C23.5771 18.672 23.2944 18.56 23.0598 18.336C22.8251 18.1013 22.7078 17.8133 22.7078 17.472ZM27.1364 31.04V20.208H28.9284V21.264C29.1204 20.9227 29.4297 20.6347 29.8564 20.4C30.283 20.1547 30.8004 20.032 31.4084 20.032C31.9844 20.032 32.4964 20.1387 32.9444 20.352C33.3924 20.5547 33.7657 20.8373 34.0644 21.2C34.3737 21.5627 34.6084 21.9947 34.7684 22.496C34.9284 22.9867 35.0084 23.52 35.0084 24.096C35.0084 24.6827 34.923 25.2267 34.7524 25.728C34.5817 26.2187 34.3364 26.6507 34.0164 27.024C33.6964 27.3867 33.307 27.6747 32.8484 27.888C32.4004 28.0907 31.899 28.192 31.3444 28.192C30.779 28.192 30.2937 28.0907 29.8884 27.888C29.483 27.6747 29.179 27.4187 28.9764 27.12V31.04H27.1364ZM33.1524 24.096C33.1524 23.36 32.9604 22.7733 32.5764 22.336C32.1924 21.8987 31.6857 21.68 31.0564 21.68C30.747 21.68 30.4644 21.7387 30.2084 21.856C29.9524 21.9733 29.7337 22.1387 29.5524 22.352C29.371 22.5547 29.227 22.8053 29.1204 23.104C29.0137 23.4027 28.9604 23.7333 28.9604 24.096C28.9604 24.8427 29.1577 25.44 29.5524 25.888C29.947 26.3253 30.4484 26.544 31.0564 26.544C31.675 26.544 32.1764 26.3253 32.5604 25.888C32.955 25.44 33.1524 24.8427 33.1524 24.096ZM37.9115 25.44C37.9435 25.792 38.0875 26.1013 38.3435 26.368C38.6102 26.6347 38.9942 26.768 39.4955 26.768C39.8795 26.768 40.1675 26.6827 40.3595 26.512C40.5622 26.3307 40.6635 26.1173 40.6635 25.872C40.6635 25.6587 40.5888 25.4773 40.4395 25.328C40.2902 25.1787 40.0608 25.072 39.7515 25.008L38.5995 24.752C37.9062 24.6027 37.3835 24.3253 37.0315 23.92C36.6795 23.504 36.5035 23.024 36.5035 22.48C36.5035 22.1387 36.5782 21.8187 36.7275 21.52C36.8768 21.2107 37.0795 20.944 37.3355 20.72C37.5915 20.4853 37.8902 20.304 38.2315 20.176C38.5835 20.0373 38.9622 19.968 39.3675 19.968C39.9115 19.968 40.3648 20.048 40.7275 20.208C41.1008 20.3573 41.4048 20.544 41.6395 20.768C41.8742 20.992 42.0448 21.232 42.1515 21.488C42.2688 21.7333 42.3435 21.952 42.3755 22.144L40.8075 22.592C40.7862 22.4853 40.7488 22.3627 40.6955 22.224C40.6422 22.0853 40.5568 21.9573 40.4395 21.84C40.3328 21.7227 40.1888 21.6267 40.0075 21.552C39.8368 21.4667 39.6235 21.424 39.3675 21.424C39.0368 21.424 38.7648 21.5147 38.5515 21.696C38.3488 21.8667 38.2475 22.0747 38.2475 22.32C38.2475 22.5333 38.3168 22.7093 38.4555 22.848C38.5942 22.9867 38.7862 23.0827 39.0315 23.136L40.2155 23.376C40.9515 23.536 41.5062 23.8293 41.8795 24.256C42.2635 24.672 42.4555 25.168 42.4555 25.744C42.4555 26.0427 42.3915 26.3413 42.2635 26.64C42.1462 26.928 41.9648 27.1947 41.7195 27.44C41.4848 27.6747 41.1808 27.8667 40.8075 28.016C40.4342 28.1653 40.0022 28.24 39.5115 28.24C38.9462 28.24 38.4662 28.16 38.0715 28C37.6768 27.84 37.3515 27.6427 37.0955 27.408C36.8395 27.1627 36.6475 26.9067 36.5195 26.64C36.3915 26.3627 36.3168 26.112 36.2955 25.888L37.9115 25.44Z" fill="#055160"/>
<circle cx="14" cy="42" r="2" fill="#055160"/>
<circle cx="14" cy="58" r="2" fill="#055160"/>
<path d="M26.14 38.416V46H25.144V38.416H22.228V37.492H29.056V38.416H26.14ZM30.7515 46H29.7915V37.324H30.7515V41.02C30.9355 40.716 31.1835 40.484 31.4955 40.324C31.8075 40.164 32.1515 40.084 32.5275 40.084C32.8715 40.084 33.1715 40.144 33.4275 40.264C33.6835 40.376 33.8955 40.532 34.0635 40.732C34.2395 40.932 34.3675 41.168 34.4475 41.44C34.5355 41.712 34.5795 42.004 34.5795 42.316V46H33.6195V42.46C33.6195 42.252 33.5915 42.056 33.5355 41.872C33.4875 41.688 33.4075 41.528 33.2955 41.392C33.1835 41.256 33.0355 41.148 32.8515 41.068C32.6755 40.988 32.4555 40.948 32.1915 40.948C31.9595 40.948 31.7555 40.992 31.5795 41.08C31.4035 41.16 31.2515 41.276 31.1235 41.428C31.0035 41.572 30.9115 41.744 30.8475 41.944C30.7835 42.136 30.7515 42.344 30.7515 42.568V46ZM40.4214 42.568C40.4054 42.112 40.2534 41.728 39.9654 41.416C39.6854 41.096 39.2694 40.936 38.7174 40.936C38.4694 40.936 38.2414 40.984 38.0334 41.08C37.8254 41.168 37.6454 41.288 37.4934 41.44C37.3494 41.584 37.2334 41.756 37.1454 41.956C37.0574 42.148 37.0054 42.352 36.9894 42.568H40.4214ZM41.3814 44.368C41.3014 44.616 41.1854 44.852 41.0334 45.076C40.8814 45.292 40.6974 45.48 40.4814 45.64C40.2654 45.8 40.0174 45.928 39.7374 46.024C39.4654 46.12 39.1614 46.168 38.8254 46.168C38.4414 46.168 38.0774 46.1 37.7334 45.964C37.3894 45.828 37.0854 45.628 36.8214 45.364C36.5654 45.1 36.3614 44.78 36.2094 44.404C36.0574 44.02 35.9814 43.588 35.9814 43.108C35.9814 42.652 36.0534 42.24 36.1974 41.872C36.3494 41.496 36.5494 41.176 36.7974 40.912C37.0454 40.648 37.3334 40.444 37.6614 40.3C37.9974 40.156 38.3454 40.084 38.7054 40.084C39.1374 40.084 39.5214 40.156 39.8574 40.3C40.2014 40.444 40.4854 40.648 40.7094 40.912C40.9414 41.168 41.1174 41.48 41.2374 41.848C41.3574 42.208 41.4174 42.608 41.4174 43.048C41.4174 43.112 41.4134 43.176 41.4054 43.24C41.4054 43.296 41.4014 43.344 41.3934 43.384H36.9654V43.432C36.9654 43.704 37.0134 43.956 37.1094 44.188C37.2054 44.412 37.3374 44.608 37.5054 44.776C37.6734 44.944 37.8694 45.076 38.0934 45.172C38.3254 45.26 38.5694 45.304 38.8254 45.304C39.3134 45.304 39.6934 45.184 39.9654 44.944C40.2454 44.704 40.4414 44.412 40.5534 44.068L41.3814 44.368ZM50.4882 39.748C50.4562 39.572 50.3962 39.392 50.3082 39.208C50.2202 39.024 50.0962 38.86 49.9362 38.716C49.7842 38.572 49.5922 38.456 49.3602 38.368C49.1362 38.272 48.8722 38.224 48.5682 38.224C48.3202 38.224 48.0882 38.264 47.8722 38.344C47.6642 38.416 47.4802 38.52 47.3202 38.656C47.1602 38.792 47.0322 38.952 46.9362 39.136C46.8482 39.32 46.8042 39.52 46.8042 39.736C46.8042 40.08 46.9082 40.368 47.1162 40.6C47.3322 40.832 47.6362 40.992 48.0282 41.08L49.2762 41.356C49.9642 41.508 50.5002 41.788 50.8842 42.196C51.2682 42.604 51.4602 43.108 51.4602 43.708C51.4602 44.036 51.3922 44.348 51.2562 44.644C51.1202 44.94 50.9282 45.204 50.6802 45.436C50.4322 45.66 50.1282 45.84 49.7682 45.976C49.4082 46.104 49.0082 46.168 48.5682 46.168C48.0722 46.168 47.6402 46.096 47.2722 45.952C46.9042 45.8 46.5882 45.608 46.3242 45.376C46.0682 45.136 45.8682 44.864 45.7242 44.56C45.5802 44.256 45.4882 43.948 45.4482 43.636L46.3962 43.336C46.4202 43.592 46.4842 43.836 46.5882 44.068C46.6922 44.292 46.8322 44.496 47.0082 44.68C47.1922 44.856 47.4122 44.996 47.6682 45.1C47.9322 45.204 48.2322 45.256 48.5682 45.256C49.1842 45.256 49.6522 45.116 49.9722 44.836C50.2922 44.548 50.4522 44.2 50.4522 43.792C50.4522 43.44 50.3362 43.14 50.1042 42.892C49.8722 42.636 49.5282 42.456 49.0722 42.352L47.8242 42.076C47.5282 42.012 47.2562 41.916 47.0082 41.788C46.7602 41.66 46.5442 41.5 46.3602 41.308C46.1842 41.116 46.0442 40.896 45.9402 40.648C45.8442 40.392 45.7962 40.108 45.7962 39.796C45.7962 39.46 45.8682 39.144 46.0122 38.848C46.1562 38.552 46.3522 38.292 46.6002 38.068C46.8482 37.836 47.1402 37.656 47.4762 37.528C47.8122 37.392 48.1722 37.324 48.5562 37.324C49.0122 37.324 49.4042 37.388 49.7322 37.516C50.0682 37.644 50.3482 37.808 50.5722 38.008C50.8042 38.208 50.9842 38.432 51.1122 38.68C51.2402 38.928 51.3322 39.176 51.3882 39.424L50.4882 39.748ZM54.2225 40.252H55.5785V41.116H54.2225V44.296C54.2225 44.6 54.2905 44.828 54.4265 44.98C54.5705 45.124 54.7945 45.196 55.0985 45.196C55.1865 45.196 55.2745 45.192 55.3625 45.184C55.4585 45.168 55.5305 45.152 55.5785 45.136V45.952C55.5225 45.968 55.4265 45.988 55.2905 46.012C55.1625 46.044 55.0065 46.06 54.8225 46.06C54.3425 46.06 53.9625 45.92 53.6825 45.64C53.4025 45.36 53.2625 44.956 53.2625 44.428V41.116H52.1105V40.252H52.4825C52.7785 40.252 52.9905 40.176 53.1185 40.024C53.2545 39.864 53.3225 39.648 53.3225 39.376V38.428H54.2225V40.252ZM56.4889 44.476C56.4889 43.972 56.6489 43.58 56.9689 43.3C57.2889 43.012 57.7009 42.832 58.2049 42.76L59.7529 42.532C59.9609 42.5 60.0969 42.444 60.1609 42.364C60.2329 42.276 60.2689 42.168 60.2689 42.04C60.2689 41.712 60.1609 41.44 59.9449 41.224C59.7289 41.008 59.3929 40.9 58.9369 40.9C58.5129 40.9 58.1769 41.016 57.9289 41.248C57.6889 41.472 57.5489 41.768 57.5089 42.136L56.5969 41.92C56.6289 41.648 56.7089 41.4 56.8369 41.176C56.9649 40.952 57.1289 40.76 57.3289 40.6C57.5369 40.432 57.7729 40.304 58.0369 40.216C58.3089 40.128 58.6009 40.084 58.9129 40.084C59.3209 40.084 59.6689 40.14 59.9569 40.252C60.2529 40.356 60.4929 40.504 60.6769 40.696C60.8689 40.88 61.0089 41.096 61.0969 41.344C61.1849 41.592 61.2289 41.856 61.2289 42.136V45.04C61.2289 45.28 61.2369 45.48 61.2529 45.64C61.2689 45.792 61.2849 45.912 61.3009 46H60.3649C60.3489 45.936 60.3329 45.832 60.3169 45.688C60.3009 45.544 60.2929 45.36 60.2929 45.136C60.2289 45.256 60.1409 45.376 60.0289 45.496C59.9249 45.616 59.7929 45.728 59.6329 45.832C59.4729 45.928 59.2889 46.008 59.0809 46.072C58.8729 46.136 58.6409 46.168 58.3849 46.168C58.0889 46.168 57.8209 46.12 57.5809 46.024C57.3489 45.928 57.1529 45.804 56.9929 45.652C56.8329 45.492 56.7089 45.312 56.6209 45.112C56.5329 44.904 56.4889 44.692 56.4889 44.476ZM58.5049 45.352C58.7529 45.352 58.9849 45.316 59.2009 45.244C59.4169 45.172 59.6009 45.064 59.7529 44.92C59.9129 44.776 60.0369 44.592 60.1249 44.368C60.2209 44.144 60.2689 43.88 60.2689 43.576V43.192L58.3969 43.468C58.1169 43.508 57.8889 43.608 57.7129 43.768C57.5369 43.928 57.4489 44.148 57.4489 44.428C57.4489 44.66 57.5409 44.872 57.7249 45.064C57.9169 45.256 58.1769 45.352 58.5049 45.352ZM65.5576 42.688L68.0656 46H66.8536L64.8856 43.348L63.9976 44.26V46H63.0376V37.324H63.9976V42.988L66.6856 40.252H68.0056L65.5576 42.688ZM72.9175 42.568C72.9015 42.112 72.7495 41.728 72.4615 41.416C72.1815 41.096 71.7655 40.936 71.2135 40.936C70.9655 40.936 70.7375 40.984 70.5295 41.08C70.3215 41.168 70.1415 41.288 69.9895 41.44C69.8455 41.584 69.7295 41.756 69.6415 41.956C69.5535 42.148 69.5015 42.352 69.4855 42.568H72.9175ZM73.8775 44.368C73.7975 44.616 73.6815 44.852 73.5295 45.076C73.3775 45.292 73.1935 45.48 72.9775 45.64C72.7615 45.8 72.5135 45.928 72.2335 46.024C71.9615 46.12 71.6575 46.168 71.3215 46.168C70.9375 46.168 70.5735 46.1 70.2295 45.964C69.8855 45.828 69.5815 45.628 69.3175 45.364C69.0615 45.1 68.8575 44.78 68.7055 44.404C68.5535 44.02 68.4775 43.588 68.4775 43.108C68.4775 42.652 68.5495 42.24 68.6935 41.872C68.8455 41.496 69.0455 41.176 69.2935 40.912C69.5415 40.648 69.8295 40.444 70.1575 40.3C70.4935 40.156 70.8415 40.084 71.2015 40.084C71.6335 40.084 72.0175 40.156 72.3535 40.3C72.6975 40.444 72.9815 40.648 73.2055 40.912C73.4375 41.168 73.6135 41.48 73.7335 41.848C73.8535 42.208 73.9135 42.608 73.9135 43.048C73.9135 43.112 73.9095 43.176 73.9015 43.24C73.9015 43.296 73.8975 43.344 73.8895 43.384H69.4615V43.432C69.4615 43.704 69.5095 43.956 69.6055 44.188C69.7015 44.412 69.8335 44.608 70.0015 44.776C70.1695 44.944 70.3655 45.076 70.5895 45.172C70.8215 45.26 71.0655 45.304 71.3215 45.304C71.8095 45.304 72.1895 45.184 72.4615 44.944C72.7415 44.704 72.9375 44.412 73.0495 44.068L73.8775 44.368ZM75.7137 46H74.7777L78.8937 37.492H79.8297L75.7137 46ZM84.2522 46.168C83.8202 46.168 83.4202 46.104 83.0522 45.976C82.6842 45.84 82.3642 45.644 82.0922 45.388C81.8282 45.132 81.6202 44.816 81.4682 44.44C81.3162 44.056 81.2402 43.616 81.2402 43.12V37.492H82.2482V43.096C82.2482 43.784 82.4202 44.316 82.7642 44.692C83.1082 45.06 83.6042 45.244 84.2522 45.244C84.9002 45.244 85.3962 45.06 85.7402 44.692C86.0842 44.316 86.2562 43.784 86.2562 43.096V37.492H87.2642V43.12C87.2642 43.616 87.1882 44.056 87.0362 44.44C86.8842 44.816 86.6722 45.132 86.4002 45.388C86.1362 45.644 85.8202 45.84 85.4522 45.976C85.0842 46.104 84.6842 46.168 84.2522 46.168ZM90.1655 46H89.2055V40.252H90.1415V41.116C90.3255 40.78 90.5735 40.524 90.8855 40.348C91.2055 40.172 91.5575 40.084 91.9415 40.084C92.2855 40.084 92.5855 40.144 92.8415 40.264C93.0975 40.376 93.3095 40.532 93.4775 40.732C93.6535 40.932 93.7815 41.168 93.8615 41.44C93.9495 41.712 93.9935 42.004 93.9935 42.316V46H93.0335V42.46C93.0335 42.252 93.0055 42.056 92.9495 41.872C92.9015 41.688 92.8215 41.528 92.7095 41.392C92.5975 41.256 92.4495 41.148 92.2655 41.068C92.0895 40.988 91.8695 40.948 91.6055 40.948C91.3735 40.948 91.1655 40.992 90.9815 41.08C90.8055 41.168 90.6575 41.288 90.5375 41.44C90.4175 41.592 90.3255 41.772 90.2615 41.98C90.1975 42.18 90.1655 42.392 90.1655 42.616V46ZM96.1875 44.188C96.2275 44.524 96.3675 44.804 96.6075 45.028C96.8555 45.244 97.1955 45.352 97.6275 45.352C97.9715 45.352 98.2435 45.268 98.4435 45.1C98.6435 44.932 98.7435 44.724 98.7435 44.476C98.7435 44.26 98.6635 44.084 98.5035 43.948C98.3435 43.804 98.1315 43.7 97.8675 43.636L96.9315 43.42C96.4915 43.316 96.1435 43.128 95.8875 42.856C95.6315 42.584 95.5035 42.24 95.5035 41.824C95.5035 41.584 95.5555 41.36 95.6595 41.152C95.7715 40.936 95.9155 40.752 96.0915 40.6C96.2755 40.44 96.4875 40.316 96.7275 40.228C96.9755 40.132 97.2355 40.084 97.5075 40.084C97.8755 40.084 98.1875 40.136 98.4435 40.24C98.7075 40.344 98.9195 40.476 99.0795 40.636C99.2475 40.788 99.3755 40.956 99.4635 41.14C99.5515 41.316 99.6115 41.476 99.6435 41.62L98.7915 41.932C98.7755 41.836 98.7395 41.728 98.6835 41.608C98.6355 41.488 98.5595 41.376 98.4555 41.272C98.3595 41.168 98.2315 41.08 98.0715 41.008C97.9195 40.936 97.7315 40.9 97.5075 40.9C97.2035 40.9 96.9475 40.984 96.7395 41.152C96.5395 41.32 96.4395 41.524 96.4395 41.764C96.4395 42.164 96.6915 42.424 97.1955 42.544L98.1315 42.76C98.6355 42.872 99.0195 43.072 99.2835 43.36C99.5555 43.64 99.6915 43.996 99.6915 44.428C99.6915 44.636 99.6475 44.844 99.5595 45.052C99.4715 45.26 99.3395 45.448 99.1635 45.616C98.9875 45.776 98.7715 45.908 98.5155 46.012C98.2595 46.116 97.9595 46.168 97.6155 46.168C97.2395 46.168 96.9115 46.112 96.6315 46C96.3515 45.896 96.1195 45.764 95.9355 45.604C95.7515 45.436 95.6075 45.256 95.5035 45.064C95.4075 44.864 95.3475 44.672 95.3235 44.488L96.1875 44.188ZM102.562 40.252H103.918V41.116H102.562V44.296C102.562 44.6 102.63 44.828 102.766 44.98C102.91 45.124 103.134 45.196 103.438 45.196C103.526 45.196 103.614 45.192 103.702 45.184C103.798 45.168 103.87 45.152 103.918 45.136V45.952C103.862 45.968 103.766 45.988 103.63 46.012C103.502 46.044 103.346 46.06 103.162 46.06C102.682 46.06 102.302 45.92 102.022 45.64C101.742 45.36 101.602 44.956 101.602 44.428V41.116H100.45V40.252H100.822C101.118 40.252 101.33 40.176 101.458 40.024C101.594 39.864 101.662 39.648 101.662 39.376V38.428H102.562V40.252ZM104.829 44.476C104.829 43.972 104.989 43.58 105.309 43.3C105.629 43.012 106.041 42.832 106.545 42.76L108.093 42.532C108.301 42.5 108.437 42.444 108.501 42.364C108.573 42.276 108.609 42.168 108.609 42.04C108.609 41.712 108.501 41.44 108.285 41.224C108.069 41.008 107.733 40.9 107.277 40.9C106.853 40.9 106.517 41.016 106.269 41.248C106.029 41.472 105.889 41.768 105.849 42.136L104.937 41.92C104.969 41.648 105.049 41.4 105.177 41.176C105.305 40.952 105.469 40.76 105.669 40.6C105.877 40.432 106.113 40.304 106.377 40.216C106.649 40.128 106.941 40.084 107.253 40.084C107.661 40.084 108.009 40.14 108.297 40.252C108.593 40.356 108.833 40.504 109.017 40.696C109.209 40.88 109.349 41.096 109.437 41.344C109.525 41.592 109.569 41.856 109.569 42.136V45.04C109.569 45.28 109.577 45.48 109.593 45.64C109.609 45.792 109.625 45.912 109.641 46H108.705C108.689 45.936 108.673 45.832 108.657 45.688C108.641 45.544 108.633 45.36 108.633 45.136C108.569 45.256 108.481 45.376 108.369 45.496C108.265 45.616 108.133 45.728 107.973 45.832C107.813 45.928 107.629 46.008 107.421 46.072C107.213 46.136 106.981 46.168 106.725 46.168C106.429 46.168 106.161 46.12 105.921 46.024C105.689 45.928 105.493 45.804 105.333 45.652C105.173 45.492 105.049 45.312 104.961 45.112C104.873 44.904 104.829 44.692 104.829 44.476ZM106.845 45.352C107.093 45.352 107.325 45.316 107.541 45.244C107.757 45.172 107.941 45.064 108.093 44.92C108.253 44.776 108.377 44.592 108.465 44.368C108.561 44.144 108.609 43.88 108.609 43.576V43.192L106.737 43.468C106.457 43.508 106.229 43.608 106.053 43.768C105.877 43.928 105.789 44.148 105.789 44.428C105.789 44.66 105.881 44.872 106.065 45.064C106.257 45.256 106.517 45.352 106.845 45.352ZM113.897 42.688L116.405 46H115.193L113.225 43.348L112.337 44.26V46H111.377V37.324H112.337V42.988L115.025 40.252H116.345L113.897 42.688ZM121.257 42.568C121.241 42.112 121.089 41.728 120.801 41.416C120.521 41.096 120.105 40.936 119.553 40.936C119.305 40.936 119.077 40.984 118.869 41.08C118.661 41.168 118.481 41.288 118.329 41.44C118.185 41.584 118.069 41.756 117.981 41.956C117.893 42.148 117.841 42.352 117.825 42.568H121.257ZM122.217 44.368C122.137 44.616 122.021 44.852 121.869 45.076C121.717 45.292 121.533 45.48 121.317 45.64C121.101 45.8 120.853 45.928 120.573 46.024C120.301 46.12 119.997 46.168 119.661 46.168C119.277 46.168 118.913 46.1 118.569 45.964C118.225 45.828 117.921 45.628 117.657 45.364C117.401 45.1 117.197 44.78 117.045 44.404C116.893 44.02 116.817 43.588 116.817 43.108C116.817 42.652 116.889 42.24 117.033 41.872C117.185 41.496 117.385 41.176 117.633 40.912C117.881 40.648 118.169 40.444 118.497 40.3C118.833 40.156 119.181 40.084 119.541 40.084C119.973 40.084 120.357 40.156 120.693 40.3C121.037 40.444 121.321 40.648 121.545 40.912C121.777 41.168 121.953 41.48 122.073 41.848C122.193 42.208 122.253 42.608 122.253 43.048C122.253 43.112 122.249 43.176 122.241 43.24C122.241 43.296 122.237 43.344 122.229 43.384H117.801V43.432C117.801 43.704 117.849 43.956 117.945 44.188C118.041 44.412 118.173 44.608 118.341 44.776C118.509 44.944 118.705 45.076 118.929 45.172C119.161 45.26 119.405 45.304 119.661 45.304C120.149 45.304 120.529 45.184 120.801 44.944C121.081 44.704 121.277 44.412 121.389 44.068L122.217 44.368ZM130.616 46.168C130.072 46.168 129.548 46.072 129.044 45.88C128.548 45.68 128.104 45.392 127.712 45.016C127.32 44.64 127.008 44.18 126.776 43.636C126.544 43.084 126.428 42.452 126.428 41.74C126.428 41.028 126.548 40.4 126.788 39.856C127.028 39.304 127.344 38.84 127.736 38.464C128.128 38.088 128.572 37.804 129.068 37.612C129.572 37.42 130.088 37.324 130.616 37.324C131.096 37.324 131.54 37.388 131.948 37.516C132.356 37.644 132.72 37.828 133.04 38.068C133.36 38.3 133.628 38.584 133.844 38.92C134.068 39.248 134.232 39.616 134.336 40.024L133.4 40.348C133.24 39.676 132.916 39.16 132.428 38.8C131.948 38.432 131.344 38.248 130.616 38.248C130.208 38.248 129.812 38.324 129.428 38.476C129.052 38.62 128.716 38.84 128.42 39.136C128.124 39.424 127.884 39.788 127.7 40.228C127.524 40.66 127.436 41.164 127.436 41.74C127.436 42.316 127.524 42.824 127.7 43.264C127.884 43.704 128.124 44.072 128.42 44.368C128.716 44.656 129.052 44.876 129.428 45.028C129.812 45.172 130.208 45.244 130.616 45.244C130.992 45.244 131.336 45.192 131.648 45.088C131.96 44.976 132.236 44.824 132.476 44.632C132.716 44.44 132.916 44.216 133.076 43.96C133.244 43.696 133.372 43.412 133.46 43.108L134.348 43.432C134.236 43.832 134.068 44.2 133.844 44.536C133.628 44.872 133.36 45.16 133.04 45.4C132.728 45.64 132.368 45.828 131.96 45.964C131.552 46.1 131.104 46.168 130.616 46.168ZM135.957 46V37.492H141.069V38.416H136.965V41.404H140.697V42.328H136.965V46H135.957ZM145.909 41.74L148.765 46H147.565L145.321 42.544L143.041 46H141.829L144.721 41.74L141.853 37.492H143.077L145.321 40.96L147.577 37.492H148.789L145.909 41.74ZM152.466 44.476C152.466 43.972 152.626 43.58 152.946 43.3C153.266 43.012 153.678 42.832 154.182 42.76L155.73 42.532C155.938 42.5 156.074 42.444 156.138 42.364C156.21 42.276 156.246 42.168 156.246 42.04C156.246 41.712 156.138 41.44 155.922 41.224C155.706 41.008 155.37 40.9 154.914 40.9C154.49 40.9 154.154 41.016 153.906 41.248C153.666 41.472 153.526 41.768 153.486 42.136L152.574 41.92C152.606 41.648 152.686 41.4 152.814 41.176C152.942 40.952 153.106 40.76 153.306 40.6C153.514 40.432 153.75 40.304 154.014 40.216C154.286 40.128 154.578 40.084 154.89 40.084C155.298 40.084 155.646 40.14 155.934 40.252C156.23 40.356 156.47 40.504 156.654 40.696C156.846 40.88 156.986 41.096 157.074 41.344C157.162 41.592 157.206 41.856 157.206 42.136V45.04C157.206 45.28 157.214 45.48 157.23 45.64C157.246 45.792 157.262 45.912 157.278 46H156.342C156.326 45.936 156.31 45.832 156.294 45.688C156.278 45.544 156.27 45.36 156.27 45.136C156.206 45.256 156.118 45.376 156.006 45.496C155.902 45.616 155.77 45.728 155.61 45.832C155.45 45.928 155.266 46.008 155.058 46.072C154.85 46.136 154.618 46.168 154.362 46.168C154.066 46.168 153.798 46.12 153.558 46.024C153.326 45.928 153.13 45.804 152.97 45.652C152.81 45.492 152.686 45.312 152.598 45.112C152.51 44.904 152.466 44.692 152.466 44.476ZM154.482 45.352C154.73 45.352 154.962 45.316 155.178 45.244C155.394 45.172 155.578 45.064 155.73 44.92C155.89 44.776 156.014 44.592 156.102 44.368C156.198 44.144 156.246 43.88 156.246 43.576V43.192L154.374 43.468C154.094 43.508 153.866 43.608 153.69 43.768C153.514 43.928 153.426 44.148 153.426 44.428C153.426 44.66 153.518 44.872 153.701 45.064C153.894 45.256 154.154 45.352 154.482 45.352ZM159.95 41.068C160.11 40.764 160.35 40.524 160.67 40.348C160.99 40.172 161.338 40.084 161.714 40.084C162.114 40.084 162.47 40.184 162.782 40.384C163.102 40.584 163.334 40.876 163.478 41.26C163.686 40.852 163.958 40.556 164.294 40.372C164.638 40.18 165.014 40.084 165.422 40.084C165.686 40.084 165.934 40.132 166.166 40.228C166.406 40.316 166.618 40.452 166.802 40.636C166.986 40.812 167.13 41.036 167.234 41.308C167.346 41.572 167.402 41.884 167.402 42.244V46H166.442V42.352C166.442 42.152 166.414 41.968 166.358 41.8C166.31 41.632 166.23 41.484 166.118 41.356C166.014 41.228 165.878 41.128 165.71 41.056C165.542 40.984 165.346 40.948 165.122 40.948C164.906 40.948 164.71 40.988 164.534 41.068C164.366 41.148 164.218 41.26 164.09 41.404C163.962 41.548 163.862 41.716 163.79 41.908C163.726 42.092 163.694 42.292 163.694 42.508V46H162.734V42.352C162.734 41.952 162.626 41.62 162.41 41.356C162.194 41.084 161.858 40.948 161.402 40.948C161.186 40.948 160.99 40.988 160.814 41.068C160.638 41.148 160.486 41.26 160.358 41.404C160.238 41.54 160.142 41.704 160.07 41.896C160.006 42.088 159.974 42.296 159.974 42.52V46H159.014V40.252H159.95V41.068ZM171.682 40.084C172.098 40.084 172.482 40.16 172.834 40.312C173.186 40.464 173.49 40.676 173.746 40.948C174.002 41.212 174.202 41.532 174.346 41.908C174.49 42.276 174.562 42.68 174.562 43.12C174.562 43.568 174.49 43.98 174.346 44.356C174.202 44.724 174.002 45.044 173.746 45.316C173.49 45.58 173.186 45.788 172.834 45.94C172.482 46.092 172.098 46.168 171.682 46.168C171.266 46.168 170.882 46.092 170.53 45.94C170.178 45.788 169.874 45.58 169.618 45.316C169.362 45.044 169.162 44.724 169.018 44.356C168.874 43.98 168.802 43.568 168.802 43.12C168.802 42.68 168.874 42.276 169.018 41.908C169.162 41.532 169.362 41.212 169.618 40.948C169.874 40.676 170.178 40.464 170.53 40.312C170.882 40.16 171.266 40.084 171.682 40.084ZM171.682 40.948C171.426 40.948 171.182 40.996 170.95 41.092C170.718 41.188 170.514 41.328 170.338 41.512C170.162 41.696 170.022 41.924 169.918 42.196C169.814 42.468 169.762 42.776 169.762 43.12C169.762 43.472 169.814 43.784 169.918 44.056C170.022 44.328 170.162 44.556 170.338 44.74C170.514 44.924 170.718 45.064 170.95 45.16C171.182 45.256 171.426 45.304 171.682 45.304C171.938 45.304 172.182 45.256 172.414 45.16C172.646 45.064 172.85 44.924 173.026 44.74C173.202 44.556 173.342 44.328 173.446 44.056C173.55 43.784 173.602 43.472 173.602 43.12C173.602 42.776 173.55 42.468 173.446 42.196C173.342 41.924 173.202 41.696 173.026 41.512C172.85 41.328 172.646 41.188 172.414 41.092C172.182 40.996 171.938 40.948 171.682 40.948ZM179.857 45.22C179.721 45.516 179.493 45.748 179.173 45.916C178.861 46.084 178.513 46.168 178.129 46.168C177.777 46.168 177.465 46.108 177.193 45.988C176.929 45.868 176.705 45.704 176.521 45.496C176.345 45.288 176.209 45.044 176.113 44.764C176.017 44.484 175.969 44.184 175.969 43.864V40.252H176.929V43.708C176.929 43.916 176.953 44.116 177.001 44.308C177.057 44.5 177.141 44.672 177.253 44.824C177.365 44.968 177.509 45.084 177.685 45.172C177.869 45.26 178.089 45.304 178.345 45.304C178.825 45.304 179.189 45.156 179.437 44.86C179.685 44.556 179.809 44.176 179.809 43.72V40.252H180.769V44.92C180.769 45.144 180.777 45.352 180.793 45.544C180.809 45.736 180.825 45.888 180.841 46H179.917C179.901 45.936 179.885 45.836 179.869 45.7C179.861 45.556 179.857 45.412 179.857 45.268V45.22ZM183.599 46H182.639V40.252H183.575V41.116C183.759 40.78 184.007 40.524 184.319 40.348C184.639 40.172 184.991 40.084 185.375 40.084C185.719 40.084 186.019 40.144 186.275 40.264C186.531 40.376 186.743 40.532 186.911 40.732C187.087 40.932 187.215 41.168 187.295 41.44C187.383 41.712 187.427 42.004 187.427 42.316V46H186.467V42.46C186.467 42.252 186.439 42.056 186.383 41.872C186.335 41.688 186.255 41.528 186.143 41.392C186.031 41.256 185.883 41.148 185.699 41.068C185.523 40.988 185.303 40.948 185.039 40.948C184.807 40.948 184.599 40.992 184.415 41.08C184.239 41.168 184.091 41.288 183.971 41.44C183.851 41.592 183.759 41.772 183.695 41.98C183.631 42.18 183.599 42.392 183.599 42.616V46ZM190.558 40.252H191.914V41.116H190.558V44.296C190.558 44.6 190.626 44.828 190.762 44.98C190.906 45.124 191.13 45.196 191.434 45.196C191.522 45.196 191.61 45.192 191.698 45.184C191.794 45.168 191.866 45.152 191.914 45.136V45.952C191.858 45.968 191.762 45.988 191.626 46.012C191.498 46.044 191.342 46.06 191.158 46.06C190.678 46.06 190.298 45.92 190.018 45.64C189.738 45.36 189.598 44.956 189.598 44.428V41.116H188.446V40.252H188.818C189.114 40.252 189.326 40.176 189.454 40.024C189.59 39.864 189.658 39.648 189.658 39.376V38.428H190.558V40.252ZM197.227 41.068C197.387 40.764 197.627 40.524 197.947 40.348C198.267 40.172 198.615 40.084 198.991 40.084C199.391 40.084 199.747 40.184 200.059 40.384C200.379 40.584 200.611 40.876 200.755 41.26C200.963 40.852 201.235 40.556 201.571 40.372C201.915 40.18 202.291 40.084 202.699 40.084C202.963 40.084 203.211 40.132 203.443 40.228C203.683 40.316 203.895 40.452 204.079 40.636C204.263 40.812 204.407 41.036 204.511 41.308C204.623 41.572 204.679 41.884 204.679 42.244V46H203.719V42.352C203.719 42.152 203.691 41.968 203.635 41.8C203.587 41.632 203.507 41.484 203.395 41.356C203.291 41.228 203.155 41.128 202.987 41.056C202.819 40.984 202.623 40.948 202.399 40.948C202.183 40.948 201.987 40.988 201.811 41.068C201.643 41.148 201.495 41.26 201.367 41.404C201.239 41.548 201.139 41.716 201.067 41.908C201.003 42.092 200.971 42.292 200.971 42.508V46H200.011V42.352C200.011 41.952 199.903 41.62 199.687 41.356C199.471 41.084 199.135 40.948 198.679 40.948C198.463 40.948 198.267 40.988 198.091 41.068C197.915 41.148 197.763 41.26 197.635 41.404C197.515 41.54 197.419 41.704 197.347 41.896C197.283 42.088 197.251 42.296 197.251 42.52V46H196.291V40.252H197.227V41.068ZM210.291 45.22C210.155 45.516 209.927 45.748 209.607 45.916C209.295 46.084 208.947 46.168 208.563 46.168C208.211 46.168 207.899 46.108 207.627 45.988C207.363 45.868 207.139 45.704 206.955 45.496C206.779 45.288 206.643 45.044 206.547 44.764C206.451 44.484 206.403 44.184 206.403 43.864V40.252H207.363V43.708C207.363 43.916 207.387 44.116 207.435 44.308C207.491 44.5 207.575 44.672 207.687 44.824C207.799 44.968 207.943 45.084 208.119 45.172C208.303 45.26 208.523 45.304 208.779 45.304C209.259 45.304 209.623 45.156 209.871 44.86C210.119 44.556 210.243 44.176 210.243 43.72V40.252H211.203V44.92C211.203 45.144 211.211 45.352 211.227 45.544C211.243 45.736 211.259 45.888 211.275 46H210.351C210.335 45.936 210.319 45.836 210.303 45.7C210.295 45.556 210.291 45.412 210.291 45.268V45.22ZM213.469 44.188C213.509 44.524 213.649 44.804 213.889 45.028C214.137 45.244 214.477 45.352 214.909 45.352C215.253 45.352 215.525 45.268 215.725 45.1C215.925 44.932 216.025 44.724 216.025 44.476C216.025 44.26 215.945 44.084 215.785 43.948C215.625 43.804 215.413 43.7 215.149 43.636L214.213 43.42C213.773 43.316 213.425 43.128 213.169 42.856C212.913 42.584 212.785 42.24 212.785 41.824C212.785 41.584 212.837 41.36 212.941 41.152C213.053 40.936 213.197 40.752 213.373 40.6C213.557 40.44 213.769 40.316 214.009 40.228C214.257 40.132 214.517 40.084 214.789 40.084C215.157 40.084 215.469 40.136 215.725 40.24C215.989 40.344 216.201 40.476 216.361 40.636C216.529 40.788 216.657 40.956 216.745 41.14C216.833 41.316 216.893 41.476 216.925 41.62L216.073 41.932C216.057 41.836 216.021 41.728 215.965 41.608C215.917 41.488 215.841 41.376 215.737 41.272C215.641 41.168 215.513 41.08 215.353 41.008C215.201 40.936 215.013 40.9 214.789 40.9C214.485 40.9 214.229 40.984 214.021 41.152C213.821 41.32 213.721 41.524 213.721 41.764C213.721 42.164 213.973 42.424 214.477 42.544L215.413 42.76C215.917 42.872 216.301 43.072 216.565 43.36C216.837 43.64 216.973 43.996 216.973 44.428C216.973 44.636 216.929 44.844 216.841 45.052C216.753 45.26 216.621 45.448 216.445 45.616C216.269 45.776 216.053 45.908 215.797 46.012C215.541 46.116 215.241 46.168 214.897 46.168C214.521 46.168 214.193 46.112 213.913 46C213.633 45.896 213.401 45.764 213.217 45.604C213.033 45.436 212.889 45.256 212.785 45.064C212.689 44.864 212.629 44.672 212.605 44.488L213.469 44.188ZM219.844 40.252H221.2V41.116H219.844V44.296C219.844 44.6 219.912 44.828 220.048 44.98C220.192 45.124 220.416 45.196 220.72 45.196C220.808 45.196 220.896 45.192 220.984 45.184C221.08 45.168 221.152 45.152 221.2 45.136V45.952C221.144 45.968 221.048 45.988 220.912 46.012C220.784 46.044 220.628 46.06 220.444 46.06C219.964 46.06 219.584 45.92 219.304 45.64C219.024 45.36 218.884 44.956 218.884 44.428V41.116H217.732V40.252H218.104C218.4 40.252 218.612 40.176 218.74 40.024C218.876 39.864 218.944 39.648 218.944 39.376V38.428H219.844V40.252ZM225.577 46V37.324H226.537V41.188C226.601 41.052 226.689 40.92 226.801 40.792C226.921 40.656 227.065 40.536 227.233 40.432C227.401 40.328 227.589 40.244 227.797 40.18C228.013 40.116 228.249 40.084 228.505 40.084C228.929 40.084 229.305 40.164 229.633 40.324C229.961 40.484 230.233 40.7 230.449 40.972C230.673 41.244 230.841 41.568 230.953 41.944C231.065 42.312 231.121 42.704 231.121 43.12C231.121 43.552 231.061 43.952 230.941 44.32C230.821 44.688 230.649 45.012 230.425 45.292C230.201 45.564 229.925 45.78 229.597 45.94C229.269 46.092 228.897 46.168 228.481 46.168C228.001 46.168 227.593 46.06 227.257 45.844C226.929 45.628 226.681 45.364 226.513 45.052V46H225.577ZM228.337 45.304C228.609 45.304 228.857 45.252 229.081 45.148C229.313 45.036 229.505 44.884 229.657 44.692C229.817 44.5 229.941 44.272 230.029 44.008C230.117 43.736 230.161 43.44 230.161 43.12C230.161 42.8 230.117 42.508 230.029 42.244C229.949 41.98 229.829 41.752 229.669 41.56C229.509 41.368 229.317 41.22 229.093 41.116C228.869 41.004 228.617 40.948 228.337 40.948C228.057 40.948 227.805 41.004 227.581 41.116C227.357 41.22 227.165 41.368 227.005 41.56C226.845 41.752 226.721 41.98 226.633 42.244C226.553 42.508 226.513 42.8 226.513 43.12C226.513 43.44 226.557 43.736 226.645 44.008C226.733 44.272 226.853 44.5 227.005 44.692C227.165 44.884 227.357 45.036 227.581 45.148C227.805 45.252 228.057 45.304 228.337 45.304ZM236.652 42.568C236.636 42.112 236.484 41.728 236.196 41.416C235.916 41.096 235.5 40.936 234.948 40.936C234.7 40.936 234.472 40.984 234.264 41.08C234.056 41.168 233.876 41.288 233.724 41.44C233.58 41.584 233.464 41.756 233.376 41.956C233.288 42.148 233.236 42.352 233.22 42.568H236.652ZM237.612 44.368C237.532 44.616 237.416 44.852 237.264 45.076C237.112 45.292 236.928 45.48 236.712 45.64C236.496 45.8 236.248 45.928 235.968 46.024C235.696 46.12 235.392 46.168 235.056 46.168C234.672 46.168 234.308 46.1 233.964 45.964C233.62 45.828 233.316 45.628 233.052 45.364C232.796 45.1 232.592 44.78 232.44 44.404C232.288 44.02 232.212 43.588 232.212 43.108C232.212 42.652 232.284 42.24 232.428 41.872C232.58 41.496 232.78 41.176 233.028 40.912C233.276 40.648 233.564 40.444 233.892 40.3C234.228 40.156 234.576 40.084 234.936 40.084C235.368 40.084 235.752 40.156 236.088 40.3C236.432 40.444 236.716 40.648 236.94 40.912C237.172 41.168 237.348 41.48 237.468 41.848C237.588 42.208 237.648 42.608 237.648 43.048C237.648 43.112 237.644 43.176 237.636 43.24C237.636 43.296 237.632 43.344 237.624 43.384H233.196V43.432C233.196 43.704 233.244 43.956 233.34 44.188C233.436 44.412 233.568 44.608 233.736 44.776C233.904 44.944 234.1 45.076 234.324 45.172C234.556 45.26 234.8 45.304 235.056 45.304C235.544 45.304 235.924 45.184 236.196 44.944C236.476 44.704 236.672 44.412 236.784 44.068L237.612 44.368ZM243.095 41.068C243.255 40.764 243.495 40.524 243.815 40.348C244.135 40.172 244.483 40.084 244.859 40.084C245.259 40.084 245.615 40.184 245.927 40.384C246.247 40.584 246.479 40.876 246.623 41.26C246.831 40.852 247.103 40.556 247.439 40.372C247.783 40.18 248.159 40.084 248.567 40.084C248.831 40.084 249.079 40.132 249.311 40.228C249.551 40.316 249.763 40.452 249.947 40.636C250.131 40.812 250.275 41.036 250.379 41.308C250.491 41.572 250.547 41.884 250.547 42.244V46H249.587V42.352C249.587 42.152 249.559 41.968 249.503 41.8C249.455 41.632 249.375 41.484 249.263 41.356C249.159 41.228 249.023 41.128 248.855 41.056C248.687 40.984 248.491 40.948 248.267 40.948C248.051 40.948 247.855 40.988 247.679 41.068C247.511 41.148 247.363 41.26 247.235 41.404C247.107 41.548 247.007 41.716 246.935 41.908C246.871 42.092 246.839 42.292 246.839 42.508V46H245.879V42.352C245.879 41.952 245.771 41.62 245.555 41.356C245.339 41.084 245.003 40.948 244.547 40.948C244.331 40.948 244.135 40.988 243.959 41.068C243.783 41.148 243.631 41.26 243.503 41.404C243.383 41.54 243.287 41.704 243.215 41.896C243.151 42.088 243.119 42.296 243.119 42.52V46H242.159V40.252H243.095V41.068ZM256.158 45.22C256.022 45.516 255.794 45.748 255.474 45.916C255.162 46.084 254.814 46.168 254.43 46.168C254.078 46.168 253.766 46.108 253.494 45.988C253.23 45.868 253.006 45.704 252.822 45.496C252.646 45.288 252.51 45.044 252.414 44.764C252.318 44.484 252.27 44.184 252.27 43.864V40.252H253.23V43.708C253.23 43.916 253.254 44.116 253.302 44.308C253.358 44.5 253.442 44.672 253.554 44.824C253.666 44.968 253.81 45.084 253.986 45.172C254.17 45.26 254.39 45.304 254.646 45.304C255.126 45.304 255.49 45.156 255.738 44.86C255.986 44.556 256.11 44.176 256.11 43.72V40.252H257.07V44.92C257.07 45.144 257.078 45.352 257.094 45.544C257.11 45.736 257.126 45.888 257.142 46H256.218C256.202 45.936 256.186 45.836 256.17 45.7C256.162 45.556 256.158 45.412 256.158 45.268V45.22ZM258.94 46V37.324H259.9V46H258.94ZM263.168 40.252H264.524V41.116H263.168V44.296C263.168 44.6 263.236 44.828 263.372 44.98C263.516 45.124 263.74 45.196 264.044 45.196C264.132 45.196 264.22 45.192 264.308 45.184C264.404 45.168 264.476 45.152 264.524 45.136V45.952C264.468 45.968 264.372 45.988 264.236 46.012C264.108 46.044 263.952 46.06 263.768 46.06C263.288 46.06 262.908 45.92 262.628 45.64C262.348 45.36 262.208 44.956 262.208 44.428V41.116H261.056V40.252H261.428C261.724 40.252 261.936 40.176 262.064 40.024C262.2 39.864 262.268 39.648 262.268 39.376V38.428H263.168V40.252ZM265.842 46V40.252H266.802V46H265.842ZM265.602 37.984C265.602 37.784 265.67 37.616 265.806 37.48C265.95 37.336 266.122 37.264 266.322 37.264C266.522 37.264 266.69 37.336 266.826 37.48C266.97 37.616 267.042 37.784 267.042 37.984C267.042 38.184 266.97 38.356 266.826 38.5C266.69 38.636 266.522 38.704 266.322 38.704C266.122 38.704 265.95 38.636 265.806 38.5C265.67 38.356 265.602 38.184 265.602 37.984ZM268.678 48.28V40.252H269.614V41.212C269.766 40.916 270.006 40.656 270.334 40.432C270.67 40.2 271.094 40.084 271.606 40.084C272.03 40.084 272.402 40.164 272.722 40.324C273.05 40.476 273.326 40.688 273.55 40.96C273.774 41.232 273.942 41.552 274.054 41.92C274.166 42.288 274.222 42.688 274.222 43.12C274.222 43.552 274.162 43.952 274.042 44.32C273.922 44.688 273.746 45.012 273.514 45.292C273.29 45.564 273.014 45.78 272.686 45.94C272.366 46.092 271.998 46.168 271.582 46.168C271.086 46.168 270.674 46.06 270.346 45.844C270.026 45.628 269.79 45.384 269.638 45.112V48.28H268.678ZM271.438 45.304C271.71 45.304 271.958 45.252 272.182 45.148C272.414 45.036 272.606 44.884 272.758 44.692C272.918 44.5 273.042 44.272 273.13 44.008C273.218 43.736 273.262 43.44 273.262 43.12C273.262 42.8 273.218 42.508 273.13 42.244C273.05 41.98 272.93 41.752 272.77 41.56C272.61 41.368 272.418 41.22 272.194 41.116C271.97 41.004 271.718 40.948 271.438 40.948C271.158 40.948 270.906 41.004 270.682 41.116C270.458 41.22 270.266 41.368 270.106 41.56C269.946 41.752 269.822 41.98 269.734 42.244C269.654 42.508 269.614 42.8 269.614 43.12C269.614 43.44 269.658 43.736 269.746 44.008C269.834 44.272 269.954 44.5 270.106 44.692C270.266 44.884 270.458 45.036 270.682 45.148C270.906 45.252 271.158 45.304 271.438 45.304ZM275.709 46V37.324H276.669V46H275.709ZM282.589 42.568C282.573 42.112 282.421 41.728 282.133 41.416C281.853 41.096 281.437 40.936 280.885 40.936C280.637 40.936 280.409 40.984 280.201 41.08C279.993 41.168 279.813 41.288 279.661 41.44C279.517 41.584 279.401 41.756 279.313 41.956C279.225 42.148 279.173 42.352 279.157 42.568H282.589ZM283.549 44.368C283.469 44.616 283.353 44.852 283.201 45.076C283.049 45.292 282.865 45.48 282.649 45.64C282.433 45.8 282.185 45.928 281.905 46.024C281.633 46.12 281.329 46.168 280.993 46.168C280.609 46.168 280.245 46.1 279.901 45.964C279.557 45.828 279.253 45.628 278.989 45.364C278.733 45.1 278.529 44.78 278.377 44.404C278.225 44.02 278.149 43.588 278.149 43.108C278.149 42.652 278.221 42.24 278.365 41.872C278.517 41.496 278.717 41.176 278.965 40.912C279.213 40.648 279.501 40.444 279.829 40.3C280.165 40.156 280.513 40.084 280.873 40.084C281.305 40.084 281.689 40.156 282.025 40.3C282.369 40.444 282.653 40.648 282.877 40.912C283.109 41.168 283.285 41.48 283.405 41.848C283.525 42.208 283.585 42.608 283.585 43.048C283.585 43.112 283.581 43.176 283.573 43.24C283.573 43.296 283.569 43.344 283.561 43.384H279.133V43.432C279.133 43.704 279.181 43.956 279.277 44.188C279.373 44.412 279.505 44.608 279.673 44.776C279.841 44.944 280.037 45.076 280.261 45.172C280.493 45.26 280.737 45.304 280.993 45.304C281.481 45.304 281.861 45.184 282.133 44.944C282.413 44.704 282.609 44.412 282.721 44.068L283.549 44.368ZM290.58 40.084C290.996 40.084 291.38 40.16 291.732 40.312C292.084 40.464 292.388 40.676 292.644 40.948C292.9 41.212 293.1 41.532 293.244 41.908C293.388 42.276 293.46 42.68 293.46 43.12C293.46 43.568 293.388 43.98 293.244 44.356C293.1 44.724 292.9 45.044 292.644 45.316C292.388 45.58 292.084 45.788 291.732 45.94C291.38 46.092 290.996 46.168 290.58 46.168C290.164 46.168 289.78 46.092 289.428 45.94C289.076 45.788 288.772 45.58 288.516 45.316C288.26 45.044 288.06 44.724 287.916 44.356C287.772 43.98 287.7 43.568 287.7 43.12C287.7 42.68 287.772 42.276 287.916 41.908C288.06 41.532 288.26 41.212 288.516 40.948C288.772 40.676 289.076 40.464 289.428 40.312C289.78 40.16 290.164 40.084 290.58 40.084ZM290.58 40.948C290.324 40.948 290.08 40.996 289.848 41.092C289.616 41.188 289.412 41.328 289.236 41.512C289.06 41.696 288.92 41.924 288.816 42.196C288.712 42.468 288.66 42.776 288.66 43.12C288.66 43.472 288.712 43.784 288.816 44.056C288.92 44.328 289.06 44.556 289.236 44.74C289.412 44.924 289.616 45.064 289.848 45.16C290.08 45.256 290.324 45.304 290.58 45.304C290.836 45.304 291.08 45.256 291.312 45.16C291.544 45.064 291.748 44.924 291.924 44.74C292.1 44.556 292.24 44.328 292.344 44.056C292.448 43.784 292.5 43.472 292.5 43.12C292.5 42.776 292.448 42.468 292.344 42.196C292.24 41.924 292.1 41.696 291.924 41.512C291.748 41.328 291.544 41.188 291.312 41.092C291.08 40.996 290.836 40.948 290.58 40.948ZM296.25 41.116V46H295.29V41.116H294.162V40.252H295.29V39.184C295.29 38.872 295.334 38.596 295.422 38.356C295.518 38.116 295.646 37.916 295.806 37.756C295.974 37.588 296.166 37.464 296.382 37.384C296.606 37.304 296.846 37.264 297.102 37.264C297.278 37.264 297.422 37.28 297.534 37.312C297.646 37.336 297.722 37.36 297.762 37.384V38.212C297.722 38.196 297.658 38.18 297.57 38.164C297.49 38.14 297.382 38.128 297.246 38.128C297.126 38.128 297.006 38.148 296.886 38.188C296.774 38.22 296.67 38.28 296.574 38.368C296.478 38.448 296.398 38.556 296.334 38.692C296.278 38.828 296.25 39 296.25 39.208V40.252H297.738V41.116H296.25ZM302.974 46V40.324H301.066V39.748C301.61 39.724 302.054 39.572 302.398 39.292C302.75 39.004 302.974 38.648 303.07 38.224H303.958V46H302.974ZM308.527 45.28C308.815 45.28 309.063 45.232 309.271 45.136C309.487 45.032 309.675 44.896 309.835 44.728C310.091 44.456 310.275 44.1 310.387 43.66C310.507 43.22 310.567 42.704 310.567 42.112C310.567 41.52 310.507 41.004 310.387 40.564C310.275 40.124 310.091 39.768 309.835 39.496C309.675 39.328 309.487 39.196 309.271 39.1C309.063 38.996 308.815 38.944 308.527 38.944C308.239 38.944 307.987 38.996 307.771 39.1C307.563 39.196 307.379 39.328 307.219 39.496C306.963 39.768 306.775 40.124 306.655 40.564C306.543 41.004 306.487 41.52 306.487 42.112C306.487 42.704 306.543 43.22 306.655 43.66C306.775 44.1 306.963 44.456 307.219 44.728C307.379 44.896 307.563 45.032 307.771 45.136C307.987 45.232 308.239 45.28 308.527 45.28ZM308.527 46.168C307.999 46.168 307.543 46.06 307.159 45.844C306.783 45.628 306.471 45.34 306.223 44.98C305.951 44.588 305.763 44.144 305.659 43.648C305.555 43.152 305.503 42.64 305.503 42.112C305.503 41.584 305.555 41.072 305.659 40.576C305.763 40.08 305.951 39.636 306.223 39.244C306.471 38.884 306.783 38.596 307.159 38.38C307.543 38.164 307.999 38.056 308.527 38.056C309.055 38.056 309.507 38.164 309.883 38.38C310.267 38.596 310.583 38.884 310.831 39.244C311.103 39.636 311.291 40.08 311.395 40.576C311.499 41.072 311.551 41.584 311.551 42.112C311.551 42.64 311.499 43.152 311.395 43.648C311.291 44.144 311.103 44.588 310.831 44.98C310.583 45.34 310.267 45.628 309.883 45.844C309.507 46.06 309.055 46.168 308.527 46.168ZM315.875 45.28C316.163 45.28 316.411 45.232 316.619 45.136C316.835 45.032 317.023 44.896 317.183 44.728C317.439 44.456 317.623 44.1 317.735 43.66C317.855 43.22 317.915 42.704 317.915 42.112C317.915 41.52 317.855 41.004 317.735 40.564C317.623 40.124 317.439 39.768 317.183 39.496C317.023 39.328 316.835 39.196 316.619 39.1C316.411 38.996 316.163 38.944 315.875 38.944C315.587 38.944 315.335 38.996 315.119 39.1C314.911 39.196 314.727 39.328 314.567 39.496C314.311 39.768 314.123 40.124 314.003 40.564C313.891 41.004 313.835 41.52 313.835 42.112C313.835 42.704 313.891 43.22 314.003 43.66C314.123 44.1 314.311 44.456 314.567 44.728C314.727 44.896 314.911 45.032 315.119 45.136C315.335 45.232 315.587 45.28 315.875 45.28ZM315.875 46.168C315.347 46.168 314.891 46.06 314.507 45.844C314.131 45.628 313.819 45.34 313.571 44.98C313.299 44.588 313.111 44.144 313.007 43.648C312.903 43.152 312.851 42.64 312.851 42.112C312.851 41.584 312.903 41.072 313.007 40.576C313.111 40.08 313.299 39.636 313.571 39.244C313.819 38.884 314.131 38.596 314.507 38.38C314.891 38.164 315.347 38.056 315.875 38.056C316.403 38.056 316.855 38.164 317.231 38.38C317.615 38.596 317.931 38.884 318.179 39.244C318.451 39.636 318.639 40.08 318.743 40.576C318.847 41.072 318.899 41.584 318.899 42.112C318.899 42.64 318.847 43.152 318.743 43.648C318.639 44.144 318.451 44.588 318.179 44.98C317.931 45.34 317.615 45.628 317.231 45.844C316.855 46.06 316.403 46.168 315.875 46.168ZM323.223 45.28C323.511 45.28 323.759 45.232 323.967 45.136C324.183 45.032 324.371 44.896 324.531 44.728C324.787 44.456 324.971 44.1 325.083 43.66C325.203 43.22 325.263 42.704 325.263 42.112C325.263 41.52 325.203 41.004 325.083 40.564C324.971 40.124 324.787 39.768 324.531 39.496C324.371 39.328 324.183 39.196 323.967 39.1C323.759 38.996 323.511 38.944 323.223 38.944C322.935 38.944 322.683 38.996 322.467 39.1C322.259 39.196 322.075 39.328 321.915 39.496C321.659 39.768 321.471 40.124 321.351 40.564C321.239 41.004 321.183 41.52 321.183 42.112C321.183 42.704 321.239 43.22 321.351 43.66C321.471 44.1 321.659 44.456 321.915 44.728C322.075 44.896 322.259 45.032 322.467 45.136C322.683 45.232 322.935 45.28 323.223 45.28ZM323.223 46.168C322.695 46.168 322.239 46.06 321.855 45.844C321.479 45.628 321.167 45.34 320.919 44.98C320.647 44.588 320.459 44.144 320.355 43.648C320.251 43.152 320.199 42.64 320.199 42.112C320.199 41.584 320.251 41.072 320.355 40.576C320.459 40.08 320.647 39.636 320.919 39.244C321.167 38.884 321.479 38.596 321.855 38.38C322.239 38.164 322.695 38.056 323.223 38.056C323.751 38.056 324.203 38.164 324.579 38.38C324.963 38.596 325.279 38.884 325.527 39.244C325.799 39.636 325.987 40.08 326.091 40.576C326.195 41.072 326.247 41.584 326.247 42.112C326.247 42.64 326.195 43.152 326.091 43.648C325.987 44.144 325.799 44.588 325.527 44.98C325.279 45.34 324.963 45.628 324.579 45.844C324.203 46.06 323.751 46.168 323.223 46.168ZM26.14 54.416V62H25.144V54.416H22.228V53.492H29.056V54.416H26.14ZM30.7515 62H29.7915V53.324H30.7515V57.02C30.9355 56.716 31.1835 56.484 31.4955 56.324C31.8075 56.164 32.1515 56.084 32.5275 56.084C32.8715 56.084 33.1715 56.144 33.4275 56.264C33.6835 56.376 33.8955 56.532 34.0635 56.732C34.2395 56.932 34.3675 57.168 34.4475 57.44C34.5355 57.712 34.5795 58.004 34.5795 58.316V62H33.6195V58.46C33.6195 58.252 33.5915 58.056 33.5355 57.872C33.4875 57.688 33.4075 57.528 33.2955 57.392C33.1835 57.256 33.0355 57.148 32.8515 57.068C32.6755 56.988 32.4555 56.948 32.1915 56.948C31.9595 56.948 31.7555 56.992 31.5795 57.08C31.4035 57.16 31.2515 57.276 31.1235 57.428C31.0035 57.572 30.9115 57.744 30.8475 57.944C30.7835 58.136 30.7515 58.344 30.7515 58.568V62ZM40.4214 58.568C40.4054 58.112 40.2534 57.728 39.9654 57.416C39.6854 57.096 39.2694 56.936 38.7174 56.936C38.4694 56.936 38.2414 56.984 38.0334 57.08C37.8254 57.168 37.6454 57.288 37.4934 57.44C37.3494 57.584 37.2334 57.756 37.1454 57.956C37.0574 58.148 37.0054 58.352 36.9894 58.568H40.4214ZM41.3814 60.368C41.3014 60.616 41.1854 60.852 41.0334 61.076C40.8814 61.292 40.6974 61.48 40.4814 61.64C40.2654 61.8 40.0174 61.928 39.7374 62.024C39.4654 62.12 39.1614 62.168 38.8254 62.168C38.4414 62.168 38.0774 62.1 37.7334 61.964C37.3894 61.828 37.0854 61.628 36.8214 61.364C36.5654 61.1 36.3614 60.78 36.2094 60.404C36.0574 60.02 35.9814 59.588 35.9814 59.108C35.9814 58.652 36.0534 58.24 36.1974 57.872C36.3494 57.496 36.5494 57.176 36.7974 56.912C37.0454 56.648 37.3334 56.444 37.6614 56.3C37.9974 56.156 38.3454 56.084 38.7054 56.084C39.1374 56.084 39.5214 56.156 39.8574 56.3C40.2014 56.444 40.4854 56.648 40.7094 56.912C40.9414 57.168 41.1174 57.48 41.2374 57.848C41.3574 58.208 41.4174 58.608 41.4174 59.048C41.4174 59.112 41.4134 59.176 41.4054 59.24C41.4054 59.296 41.4014 59.344 41.3934 59.384H36.9654V59.432C36.9654 59.704 37.0134 59.956 37.1094 60.188C37.2054 60.412 37.3374 60.608 37.5054 60.776C37.6734 60.944 37.8694 61.076 38.0934 61.172C38.3254 61.26 38.5694 61.304 38.8254 61.304C39.3134 61.304 39.6934 61.184 39.9654 60.944C40.2454 60.704 40.4414 60.412 40.5534 60.068L41.3814 60.368ZM45.9282 62V53.324H46.8882V62H45.9282ZM51.2481 56.084C51.6641 56.084 52.0481 56.16 52.4001 56.312C52.7521 56.464 53.0561 56.676 53.3121 56.948C53.5681 57.212 53.7681 57.532 53.9121 57.908C54.0561 58.276 54.1281 58.68 54.1281 59.12C54.1281 59.568 54.0561 59.98 53.9121 60.356C53.7681 60.724 53.5681 61.044 53.3121 61.316C53.0561 61.58 52.7521 61.788 52.4001 61.94C52.0481 62.092 51.6641 62.168 51.2481 62.168C50.8321 62.168 50.4481 62.092 50.0961 61.94C49.7441 61.788 49.4401 61.58 49.1841 61.316C48.9281 61.044 48.7281 60.724 48.5841 60.356C48.4401 59.98 48.3681 59.568 48.3681 59.12C48.3681 58.68 48.4401 58.276 48.5841 57.908C48.7281 57.532 48.9281 57.212 49.1841 56.948C49.4401 56.676 49.7441 56.464 50.0961 56.312C50.4481 56.16 50.8321 56.084 51.2481 56.084ZM51.2481 56.948C50.9921 56.948 50.7481 56.996 50.5161 57.092C50.2841 57.188 50.0801 57.328 49.9041 57.512C49.7281 57.696 49.5881 57.924 49.4841 58.196C49.3801 58.468 49.3281 58.776 49.3281 59.12C49.3281 59.472 49.3801 59.784 49.4841 60.056C49.5881 60.328 49.7281 60.556 49.9041 60.74C50.0801 60.924 50.2841 61.064 50.5161 61.16C50.7481 61.256 50.9921 61.304 51.2481 61.304C51.5041 61.304 51.7481 61.256 51.9801 61.16C52.2121 61.064 52.4161 60.924 52.5921 60.74C52.7681 60.556 52.9081 60.328 53.0121 60.056C53.1161 59.784 53.1681 59.472 53.1681 59.12C53.1681 58.776 53.1161 58.468 53.0121 58.196C52.9081 57.924 52.7681 57.696 52.5921 57.512C52.4161 57.328 52.2121 57.188 51.9801 57.092C51.7481 56.996 51.5041 56.948 51.2481 56.948ZM58.0559 56.948C57.7999 56.948 57.5599 56.996 57.3359 57.092C57.1119 57.188 56.9119 57.328 56.7359 57.512C56.5599 57.696 56.4199 57.924 56.3159 58.196C56.2199 58.468 56.1719 58.776 56.1719 59.12C56.1719 59.464 56.2199 59.772 56.3159 60.044C56.4199 60.316 56.5599 60.544 56.7359 60.728C56.9119 60.912 57.1119 61.056 57.3359 61.16C57.5679 61.256 57.8119 61.304 58.0679 61.304C58.3399 61.304 58.5719 61.264 58.7639 61.184C58.9639 61.096 59.1319 60.988 59.2679 60.86C59.4039 60.724 59.5119 60.584 59.5919 60.44C59.6799 60.288 59.7439 60.144 59.7839 60.008L60.6239 60.38C60.5519 60.596 60.4479 60.812 60.3119 61.028C60.1759 61.236 60.0039 61.424 59.7959 61.592C59.5879 61.76 59.3399 61.896 59.0519 62C58.7639 62.112 58.4359 62.168 58.0679 62.168C57.6519 62.168 57.2679 62.092 56.9159 61.94C56.5719 61.788 56.2719 61.576 56.0159 61.304C55.7679 61.032 55.5719 60.712 55.4279 60.344C55.2839 59.968 55.2119 59.56 55.2119 59.12C55.2119 58.672 55.2839 58.264 55.4279 57.896C55.5719 57.52 55.7719 57.2 56.0279 56.936C56.2839 56.664 56.5839 56.456 56.9279 56.312C57.2719 56.16 57.6479 56.084 58.0559 56.084C58.4239 56.084 58.7519 56.136 59.0399 56.24C59.3279 56.344 59.5759 56.48 59.7839 56.648C59.9919 56.816 60.1599 57.012 60.2879 57.236C60.4159 57.452 60.5119 57.672 60.5759 57.896L59.7119 58.268C59.6719 58.116 59.6119 57.964 59.5319 57.812C59.4519 57.652 59.3439 57.508 59.2079 57.38C59.0799 57.252 58.9199 57.148 58.7279 57.068C58.5359 56.988 58.3119 56.948 58.0559 56.948ZM64.5146 58.688L67.0226 62H65.8106L63.8426 59.348L62.9546 60.26V62H61.9946V53.324H62.9546V58.988L65.6426 56.252H66.9626L64.5146 58.688ZM71.1938 64.28V56.252H72.1298V57.212C72.2818 56.916 72.5218 56.656 72.8498 56.432C73.1858 56.2 73.6098 56.084 74.1218 56.084C74.5458 56.084 74.9178 56.164 75.2378 56.324C75.5658 56.476 75.8418 56.688 76.0658 56.96C76.2898 57.232 76.4578 57.552 76.5698 57.92C76.6818 58.288 76.7378 58.688 76.7378 59.12C76.7378 59.552 76.6778 59.952 76.5578 60.32C76.4378 60.688 76.2618 61.012 76.0298 61.292C75.8058 61.564 75.5298 61.78 75.2018 61.94C74.8818 62.092 74.5138 62.168 74.0978 62.168C73.6018 62.168 73.1898 62.06 72.8618 61.844C72.5418 61.628 72.3058 61.384 72.1538 61.112V64.28H71.1938ZM73.9538 61.304C74.2258 61.304 74.4738 61.252 74.6978 61.148C74.9298 61.036 75.1218 60.884 75.2738 60.692C75.4338 60.5 75.5578 60.272 75.6458 60.008C75.7338 59.736 75.7778 59.44 75.7778 59.12C75.7778 58.8 75.7338 58.508 75.6458 58.244C75.5658 57.98 75.4458 57.752 75.2858 57.56C75.1258 57.368 74.9338 57.22 74.7098 57.116C74.4858 57.004 74.2338 56.948 73.9538 56.948C73.6738 56.948 73.4218 57.004 73.1978 57.116C72.9738 57.22 72.7818 57.368 72.6218 57.56C72.4618 57.752 72.3378 57.98 72.2498 58.244C72.1698 58.508 72.1298 58.8 72.1298 59.12C72.1298 59.44 72.1738 59.736 72.2618 60.008C72.3498 60.272 72.4698 60.5 72.6218 60.692C72.7818 60.884 72.9738 61.036 73.1978 61.148C73.4218 61.252 73.6738 61.304 73.9538 61.304ZM82.2691 58.568C82.2531 58.112 82.1011 57.728 81.8131 57.416C81.5331 57.096 81.1171 56.936 80.5651 56.936C80.3171 56.936 80.0891 56.984 79.8811 57.08C79.6731 57.168 79.4931 57.288 79.3411 57.44C79.1971 57.584 79.0811 57.756 78.9931 57.956C78.9051 58.148 78.8531 58.352 78.8371 58.568H82.2691ZM83.2291 60.368C83.1491 60.616 83.0331 60.852 82.8811 61.076C82.7291 61.292 82.5451 61.48 82.3291 61.64C82.1131 61.8 81.8651 61.928 81.5851 62.024C81.3131 62.12 81.0091 62.168 80.6731 62.168C80.2891 62.168 79.9251 62.1 79.5811 61.964C79.2371 61.828 78.9331 61.628 78.6691 61.364C78.4131 61.1 78.2091 60.78 78.0571 60.404C77.9051 60.02 77.8291 59.588 77.8291 59.108C77.8291 58.652 77.9011 58.24 78.0451 57.872C78.1971 57.496 78.3971 57.176 78.6451 56.912C78.8931 56.648 79.1811 56.444 79.5091 56.3C79.8451 56.156 80.1931 56.084 80.5531 56.084C80.9851 56.084 81.3691 56.156 81.7051 56.3C82.0491 56.444 82.3331 56.648 82.5571 56.912C82.7891 57.168 82.9651 57.48 83.0851 57.848C83.2051 58.208 83.2651 58.608 83.2651 59.048C83.2651 59.112 83.2611 59.176 83.2531 59.24C83.2531 59.296 83.2491 59.344 83.2411 59.384H78.8131V59.432C78.8131 59.704 78.8611 59.956 78.9571 60.188C79.0531 60.412 79.1851 60.608 79.3531 60.776C79.5211 60.944 79.7171 61.076 79.9411 61.172C80.1731 61.26 80.4171 61.304 80.6731 61.304C81.1611 61.304 81.5411 61.184 81.8131 60.944C82.0931 60.704 82.2891 60.412 82.4011 60.068L83.2291 60.368ZM87.8013 57.236C87.7213 57.212 87.6373 57.196 87.5493 57.188C87.4693 57.18 87.3853 57.176 87.2973 57.176C86.8173 57.176 86.4253 57.324 86.1213 57.62C85.8253 57.908 85.6773 58.376 85.6773 59.024V62H84.7173V56.252H85.6533V57.284C85.7493 57.076 85.8613 56.9 85.9893 56.756C86.1253 56.612 86.2693 56.496 86.4213 56.408C86.5813 56.32 86.7413 56.26 86.9013 56.228C87.0693 56.188 87.2333 56.168 87.3933 56.168C87.4733 56.168 87.5493 56.172 87.6213 56.18C87.7013 56.188 87.7613 56.2 87.8013 56.216V57.236ZM88.936 62V56.252H89.896V62H88.936ZM88.696 53.984C88.696 53.784 88.764 53.616 88.9 53.48C89.044 53.336 89.216 53.264 89.416 53.264C89.616 53.264 89.784 53.336 89.92 53.48C90.064 53.616 90.136 53.784 90.136 53.984C90.136 54.184 90.064 54.356 89.92 54.5C89.784 54.636 89.616 54.704 89.416 54.704C89.216 54.704 89.044 54.636 88.9 54.5C88.764 54.356 88.696 54.184 88.696 53.984ZM94.2559 56.084C94.6719 56.084 95.0559 56.16 95.4079 56.312C95.7599 56.464 96.0639 56.676 96.3199 56.948C96.5759 57.212 96.7759 57.532 96.9199 57.908C97.0639 58.276 97.1359 58.68 97.1359 59.12C97.1359 59.568 97.0639 59.98 96.9199 60.356C96.7759 60.724 96.5759 61.044 96.3199 61.316C96.0639 61.58 95.7599 61.788 95.4079 61.94C95.0559 62.092 94.6719 62.168 94.2559 62.168C93.8399 62.168 93.4559 62.092 93.1039 61.94C92.7519 61.788 92.4479 61.58 92.1919 61.316C91.9359 61.044 91.7359 60.724 91.5919 60.356C91.4479 59.98 91.3759 59.568 91.3759 59.12C91.3759 58.68 91.4479 58.276 91.5919 57.908C91.7359 57.532 91.9359 57.212 92.1919 56.948C92.4479 56.676 92.7519 56.464 93.1039 56.312C93.4559 56.16 93.8399 56.084 94.2559 56.084ZM94.2559 56.948C93.9999 56.948 93.7559 56.996 93.5239 57.092C93.2919 57.188 93.0879 57.328 92.9119 57.512C92.7359 57.696 92.5959 57.924 92.4919 58.196C92.3879 58.468 92.3359 58.776 92.3359 59.12C92.3359 59.472 92.3879 59.784 92.4919 60.056C92.5959 60.328 92.7359 60.556 92.9119 60.74C93.0879 60.924 93.2919 61.064 93.5239 61.16C93.7559 61.256 93.9999 61.304 94.2559 61.304C94.5119 61.304 94.7559 61.256 94.9879 61.16C95.2199 61.064 95.4239 60.924 95.5999 60.74C95.7759 60.556 95.9159 60.328 96.0199 60.056C96.1239 59.784 96.1759 59.472 96.1759 59.12C96.1759 58.776 96.1239 58.468 96.0199 58.196C95.9159 57.924 95.7759 57.696 95.5999 57.512C95.4239 57.328 95.2199 57.188 94.9879 57.092C94.7559 56.996 94.5119 56.948 94.2559 56.948ZM102.78 61.016C102.716 61.16 102.628 61.3 102.516 61.436C102.404 61.572 102.268 61.696 102.108 61.808C101.956 61.912 101.776 61.996 101.568 62.06C101.368 62.132 101.144 62.168 100.896 62.168C100.48 62.168 100.108 62.092 99.7797 61.94C99.4517 61.78 99.1717 61.564 98.9397 61.292C98.7157 61.012 98.5397 60.688 98.4117 60.32C98.2917 59.944 98.2317 59.544 98.2317 59.12C98.2317 58.704 98.2957 58.312 98.4237 57.944C98.5517 57.576 98.7317 57.256 98.9637 56.984C99.1957 56.704 99.4757 56.484 99.8037 56.324C100.132 56.164 100.496 56.084 100.896 56.084C101.168 56.084 101.408 56.12 101.616 56.192C101.832 56.256 102.016 56.344 102.168 56.456C102.32 56.56 102.444 56.676 102.54 56.804C102.636 56.932 102.708 57.056 102.756 57.176V53.324H103.716V60.92C103.716 61.208 103.72 61.444 103.728 61.628C103.744 61.812 103.76 61.936 103.776 62H102.84C102.824 61.936 102.808 61.828 102.792 61.676C102.784 61.524 102.78 61.356 102.78 61.172V61.016ZM100.98 61.304C101.252 61.304 101.496 61.252 101.712 61.148C101.936 61.036 102.124 60.884 102.276 60.692C102.436 60.5 102.56 60.272 102.648 60.008C102.736 59.736 102.78 59.44 102.78 59.12C102.78 58.8 102.736 58.508 102.648 58.244C102.568 57.98 102.448 57.752 102.288 57.56C102.136 57.368 101.948 57.22 101.724 57.116C101.5 57.004 101.252 56.948 100.98 56.948C100.708 56.948 100.46 57.004 100.236 57.116C100.02 57.22 99.8317 57.368 99.6717 57.56C99.5197 57.752 99.3997 57.98 99.3117 58.244C99.2317 58.508 99.1917 58.8 99.1917 59.12C99.1917 59.44 99.2317 59.736 99.3117 60.008C99.3997 60.272 99.5197 60.5 99.6717 60.692C99.8317 60.884 100.02 61.036 100.236 61.148C100.46 61.252 100.708 61.304 100.98 61.304ZM111.131 56.084C111.547 56.084 111.931 56.16 112.283 56.312C112.635 56.464 112.939 56.676 113.195 56.948C113.451 57.212 113.651 57.532 113.795 57.908C113.939 58.276 114.011 58.68 114.011 59.12C114.011 59.568 113.939 59.98 113.795 60.356C113.651 60.724 113.451 61.044 113.195 61.316C112.939 61.58 112.635 61.788 112.283 61.94C111.931 62.092 111.547 62.168 111.131 62.168C110.715 62.168 110.331 62.092 109.979 61.94C109.627 61.788 109.323 61.58 109.067 61.316C108.811 61.044 108.611 60.724 108.467 60.356C108.323 59.98 108.251 59.568 108.251 59.12C108.251 58.68 108.323 58.276 108.467 57.908C108.611 57.532 108.811 57.212 109.067 56.948C109.323 56.676 109.627 56.464 109.979 56.312C110.331 56.16 110.715 56.084 111.131 56.084ZM111.131 56.948C110.875 56.948 110.631 56.996 110.399 57.092C110.167 57.188 109.963 57.328 109.787 57.512C109.611 57.696 109.471 57.924 109.367 58.196C109.263 58.468 109.211 58.776 109.211 59.12C109.211 59.472 109.263 59.784 109.367 60.056C109.471 60.328 109.611 60.556 109.787 60.74C109.963 60.924 110.167 61.064 110.399 61.16C110.631 61.256 110.875 61.304 111.131 61.304C111.387 61.304 111.631 61.256 111.863 61.16C112.095 61.064 112.299 60.924 112.475 60.74C112.651 60.556 112.791 60.328 112.895 60.056C112.999 59.784 113.051 59.472 113.051 59.12C113.051 58.776 112.999 58.468 112.895 58.196C112.791 57.924 112.651 57.696 112.475 57.512C112.299 57.328 112.095 57.188 111.863 57.092C111.631 56.996 111.387 56.948 111.131 56.948ZM116.801 57.116V62H115.841V57.116H114.713V56.252H115.841V55.184C115.841 54.872 115.885 54.596 115.973 54.356C116.069 54.116 116.197 53.916 116.357 53.756C116.525 53.588 116.717 53.464 116.933 53.384C117.157 53.304 117.397 53.264 117.653 53.264C117.829 53.264 117.973 53.28 118.085 53.312C118.197 53.336 118.273 53.36 118.313 53.384V54.212C118.273 54.196 118.209 54.18 118.121 54.164C118.041 54.14 117.933 54.128 117.797 54.128C117.677 54.128 117.557 54.148 117.437 54.188C117.325 54.22 117.221 54.28 117.125 54.368C117.029 54.448 116.949 54.556 116.885 54.692C116.829 54.828 116.801 55 116.801 55.208V56.252H118.289V57.116H116.801ZM126.801 55.748C126.769 55.572 126.709 55.392 126.621 55.208C126.533 55.024 126.409 54.86 126.249 54.716C126.097 54.572 125.905 54.456 125.673 54.368C125.449 54.272 125.185 54.224 124.881 54.224C124.633 54.224 124.401 54.264 124.185 54.344C123.977 54.416 123.793 54.52 123.633 54.656C123.473 54.792 123.345 54.952 123.249 55.136C123.161 55.32 123.117 55.52 123.117 55.736C123.117 56.08 123.221 56.368 123.429 56.6C123.645 56.832 123.949 56.992 124.341 57.08L125.589 57.356C126.277 57.508 126.813 57.788 127.197 58.196C127.581 58.604 127.773 59.108 127.773 59.708C127.773 60.036 127.705 60.348 127.569 60.644C127.433 60.94 127.241 61.204 126.993 61.436C126.745 61.66 126.441 61.84 126.081 61.976C125.721 62.104 125.321 62.168 124.881 62.168C124.385 62.168 123.953 62.096 123.585 61.952C123.217 61.8 122.901 61.608 122.637 61.376C122.381 61.136 122.181 60.864 122.037 60.56C121.893 60.256 121.801 59.948 121.761 59.636L122.709 59.336C122.733 59.592 122.797 59.836 122.901 60.068C123.005 60.292 123.145 60.496 123.321 60.68C123.505 60.856 123.725 60.996 123.981 61.1C124.245 61.204 124.545 61.256 124.881 61.256C125.497 61.256 125.965 61.116 126.285 60.836C126.605 60.548 126.765 60.2 126.765 59.792C126.765 59.44 126.649 59.14 126.417 58.892C126.185 58.636 125.841 58.456 125.385 58.352L124.137 58.076C123.841 58.012 123.569 57.916 123.321 57.788C123.073 57.66 122.857 57.5 122.673 57.308C122.497 57.116 122.357 56.896 122.253 56.648C122.157 56.392 122.109 56.108 122.109 55.796C122.109 55.46 122.181 55.144 122.325 54.848C122.469 54.552 122.665 54.292 122.913 54.068C123.161 53.836 123.453 53.656 123.789 53.528C124.125 53.392 124.485 53.324 124.869 53.324C125.325 53.324 125.717 53.388 126.045 53.516C126.381 53.644 126.661 53.808 126.885 54.008C127.117 54.208 127.297 54.432 127.425 54.68C127.553 54.928 127.645 55.176 127.701 55.424L126.801 55.748ZM130.535 56.252H131.891V57.116H130.535V60.296C130.535 60.6 130.603 60.828 130.739 60.98C130.883 61.124 131.107 61.196 131.411 61.196C131.499 61.196 131.587 61.192 131.675 61.184C131.771 61.168 131.843 61.152 131.891 61.136V61.952C131.835 61.968 131.739 61.988 131.603 62.012C131.475 62.044 131.319 62.06 131.135 62.06C130.655 62.06 130.275 61.92 129.995 61.64C129.715 61.36 129.575 60.956 129.575 60.428V57.116H128.423V56.252H128.795C129.091 56.252 129.303 56.176 129.431 56.024C129.567 55.864 129.635 55.648 129.635 55.376V54.428H130.535V56.252ZM132.801 60.476C132.801 59.972 132.961 59.58 133.281 59.3C133.601 59.012 134.013 58.832 134.517 58.76L136.065 58.532C136.273 58.5 136.409 58.444 136.473 58.364C136.545 58.276 136.581 58.168 136.581 58.04C136.581 57.712 136.473 57.44 136.257 57.224C136.041 57.008 135.705 56.9 135.249 56.9C134.825 56.9 134.489 57.016 134.241 57.248C134.001 57.472 133.861 57.768 133.821 58.136L132.909 57.92C132.941 57.648 133.021 57.4 133.149 57.176C133.277 56.952 133.441 56.76 133.641 56.6C133.849 56.432 134.085 56.304 134.349 56.216C134.621 56.128 134.913 56.084 135.225 56.084C135.633 56.084 135.981 56.14 136.269 56.252C136.565 56.356 136.805 56.504 136.989 56.696C137.181 56.88 137.321 57.096 137.409 57.344C137.497 57.592 137.541 57.856 137.541 58.136V61.04C137.541 61.28 137.549 61.48 137.565 61.64C137.581 61.792 137.597 61.912 137.613 62H136.677C136.661 61.936 136.645 61.832 136.629 61.688C136.613 61.544 136.605 61.36 136.605 61.136C136.541 61.256 136.453 61.376 136.341 61.496C136.237 61.616 136.105 61.728 135.945 61.832C135.785 61.928 135.601 62.008 135.393 62.072C135.185 62.136 134.953 62.168 134.697 62.168C134.401 62.168 134.133 62.12 133.893 62.024C133.661 61.928 133.465 61.804 133.305 61.652C133.145 61.492 133.021 61.312 132.933 61.112C132.845 60.904 132.801 60.692 132.801 60.476ZM134.817 61.352C135.065 61.352 135.297 61.316 135.513 61.244C135.729 61.172 135.913 61.064 136.065 60.92C136.225 60.776 136.349 60.592 136.437 60.368C136.533 60.144 136.581 59.88 136.581 59.576V59.192L134.709 59.468C134.429 59.508 134.201 59.608 134.025 59.768C133.849 59.928 133.761 60.148 133.761 60.428C133.761 60.66 133.853 60.872 134.037 61.064C134.229 61.256 134.489 61.352 134.817 61.352ZM141.87 58.688L144.378 62H143.166L141.198 59.348L140.31 60.26V62H139.35V53.324H140.31V58.988L142.998 56.252H144.318L141.87 58.688ZM149.23 58.568C149.214 58.112 149.062 57.728 148.774 57.416C148.494 57.096 148.078 56.936 147.526 56.936C147.278 56.936 147.05 56.984 146.842 57.08C146.634 57.168 146.454 57.288 146.302 57.44C146.158 57.584 146.042 57.756 145.954 57.956C145.866 58.148 145.814 58.352 145.798 58.568H149.23ZM150.19 60.368C150.11 60.616 149.994 60.852 149.842 61.076C149.69 61.292 149.506 61.48 149.29 61.64C149.074 61.8 148.826 61.928 148.546 62.024C148.274 62.12 147.97 62.168 147.634 62.168C147.25 62.168 146.886 62.1 146.542 61.964C146.198 61.828 145.894 61.628 145.63 61.364C145.374 61.1 145.17 60.78 145.018 60.404C144.866 60.02 144.79 59.588 144.79 59.108C144.79 58.652 144.862 58.24 145.006 57.872C145.158 57.496 145.358 57.176 145.606 56.912C145.854 56.648 146.142 56.444 146.47 56.3C146.806 56.156 147.154 56.084 147.514 56.084C147.946 56.084 148.33 56.156 148.666 56.3C149.01 56.444 149.294 56.648 149.518 56.912C149.75 57.168 149.926 57.48 150.046 57.848C150.166 58.208 150.226 58.608 150.226 59.048C150.226 59.112 150.222 59.176 150.214 59.24C150.214 59.296 150.21 59.344 150.202 59.384H145.774V59.432C145.774 59.704 145.822 59.956 145.918 60.188C146.014 60.412 146.146 60.608 146.314 60.776C146.482 60.944 146.678 61.076 146.902 61.172C147.134 61.26 147.378 61.304 147.634 61.304C148.122 61.304 148.502 61.184 148.774 60.944C149.054 60.704 149.25 60.412 149.362 60.068L150.19 60.368ZM152.026 62H151.09L155.206 53.492H156.142L152.026 62ZM160.565 62.168C160.133 62.168 159.733 62.104 159.365 61.976C158.997 61.84 158.677 61.644 158.405 61.388C158.141 61.132 157.933 60.816 157.781 60.44C157.629 60.056 157.553 59.616 157.553 59.12V53.492H158.561V59.096C158.561 59.784 158.733 60.316 159.077 60.692C159.421 61.06 159.917 61.244 160.565 61.244C161.213 61.244 161.709 61.06 162.053 60.692C162.397 60.316 162.569 59.784 162.569 59.096V53.492H163.577V59.12C163.577 59.616 163.501 60.056 163.349 60.44C163.197 60.816 162.985 61.132 162.713 61.388C162.449 61.644 162.133 61.84 161.765 61.976C161.397 62.104 160.997 62.168 160.565 62.168ZM166.478 62H165.518V56.252H166.454V57.116C166.638 56.78 166.886 56.524 167.198 56.348C167.518 56.172 167.87 56.084 168.254 56.084C168.598 56.084 168.898 56.144 169.154 56.264C169.41 56.376 169.622 56.532 169.79 56.732C169.966 56.932 170.094 57.168 170.174 57.44C170.262 57.712 170.306 58.004 170.306 58.316V62H169.346V58.46C169.346 58.252 169.318 58.056 169.262 57.872C169.214 57.688 169.134 57.528 169.022 57.392C168.91 57.256 168.762 57.148 168.578 57.068C168.402 56.988 168.182 56.948 167.918 56.948C167.686 56.948 167.478 56.992 167.294 57.08C167.118 57.168 166.97 57.288 166.85 57.44C166.73 57.592 166.638 57.772 166.574 57.98C166.51 58.18 166.478 58.392 166.478 58.616V62ZM172.5 60.188C172.54 60.524 172.68 60.804 172.92 61.028C173.168 61.244 173.508 61.352 173.94 61.352C174.284 61.352 174.556 61.268 174.756 61.1C174.956 60.932 175.056 60.724 175.056 60.476C175.056 60.26 174.976 60.084 174.816 59.948C174.656 59.804 174.444 59.7 174.18 59.636L173.244 59.42C172.804 59.316 172.456 59.128 172.2 58.856C171.944 58.584 171.816 58.24 171.816 57.824C171.816 57.584 171.868 57.36 171.972 57.152C172.084 56.936 172.228 56.752 172.404 56.6C172.588 56.44 172.8 56.316 173.04 56.228C173.288 56.132 173.548 56.084 173.82 56.084C174.188 56.084 174.5 56.136 174.756 56.24C175.02 56.344 175.232 56.476 175.392 56.636C175.56 56.788 175.688 56.956 175.776 57.14C175.864 57.316 175.924 57.476 175.956 57.62L175.104 57.932C175.088 57.836 175.052 57.728 174.996 57.608C174.948 57.488 174.872 57.376 174.768 57.272C174.672 57.168 174.544 57.08 174.384 57.008C174.232 56.936 174.044 56.9 173.82 56.9C173.516 56.9 173.26 56.984 173.052 57.152C172.852 57.32 172.752 57.524 172.752 57.764C172.752 58.164 173.004 58.424 173.508 58.544L174.444 58.76C174.948 58.872 175.332 59.072 175.596 59.36C175.868 59.64 176.004 59.996 176.004 60.428C176.004 60.636 175.96 60.844 175.872 61.052C175.784 61.26 175.652 61.448 175.476 61.616C175.3 61.776 175.084 61.908 174.828 62.012C174.572 62.116 174.272 62.168 173.928 62.168C173.552 62.168 173.224 62.112 172.944 62C172.664 61.896 172.432 61.764 172.248 61.604C172.064 61.436 171.92 61.256 171.816 61.064C171.72 60.864 171.66 60.672 171.636 60.488L172.5 60.188ZM178.875 56.252H180.231V57.116H178.875V60.296C178.875 60.6 178.943 60.828 179.079 60.98C179.223 61.124 179.447 61.196 179.751 61.196C179.839 61.196 179.927 61.192 180.015 61.184C180.111 61.168 180.183 61.152 180.231 61.136V61.952C180.175 61.968 180.079 61.988 179.943 62.012C179.815 62.044 179.659 62.06 179.475 62.06C178.995 62.06 178.615 61.92 178.335 61.64C178.055 61.36 177.915 60.956 177.915 60.428V57.116H176.763V56.252H177.135C177.431 56.252 177.643 56.176 177.771 56.024C177.907 55.864 177.975 55.648 177.975 55.376V54.428H178.875V56.252ZM181.141 60.476C181.141 59.972 181.301 59.58 181.621 59.3C181.941 59.012 182.353 58.832 182.857 58.76L184.405 58.532C184.613 58.5 184.749 58.444 184.813 58.364C184.885 58.276 184.921 58.168 184.921 58.04C184.921 57.712 184.813 57.44 184.597 57.224C184.381 57.008 184.045 56.9 183.589 56.9C183.165 56.9 182.829 57.016 182.581 57.248C182.341 57.472 182.201 57.768 182.161 58.136L181.249 57.92C181.281 57.648 181.361 57.4 181.489 57.176C181.617 56.952 181.781 56.76 181.981 56.6C182.189 56.432 182.425 56.304 182.689 56.216C182.961 56.128 183.253 56.084 183.565 56.084C183.973 56.084 184.321 56.14 184.609 56.252C184.905 56.356 185.145 56.504 185.329 56.696C185.521 56.88 185.661 57.096 185.749 57.344C185.837 57.592 185.881 57.856 185.881 58.136V61.04C185.881 61.28 185.889 61.48 185.905 61.64C185.921 61.792 185.937 61.912 185.953 62H185.017C185.001 61.936 184.985 61.832 184.969 61.688C184.953 61.544 184.945 61.36 184.945 61.136C184.881 61.256 184.793 61.376 184.681 61.496C184.577 61.616 184.445 61.728 184.285 61.832C184.125 61.928 183.941 62.008 183.733 62.072C183.525 62.136 183.293 62.168 183.037 62.168C182.741 62.168 182.473 62.12 182.233 62.024C182.001 61.928 181.805 61.804 181.645 61.652C181.485 61.492 181.361 61.312 181.273 61.112C181.185 60.904 181.141 60.692 181.141 60.476ZM183.157 61.352C183.405 61.352 183.637 61.316 183.853 61.244C184.069 61.172 184.253 61.064 184.405 60.92C184.565 60.776 184.689 60.592 184.777 60.368C184.873 60.144 184.921 59.88 184.921 59.576V59.192L183.049 59.468C182.769 59.508 182.541 59.608 182.365 59.768C182.189 59.928 182.101 60.148 182.101 60.428C182.101 60.66 182.193 60.872 182.377 61.064C182.569 61.256 182.829 61.352 183.157 61.352ZM190.21 58.688L192.718 62H191.506L189.538 59.348L188.65 60.26V62H187.69V53.324H188.65V58.988L191.338 56.252H192.658L190.21 58.688ZM197.57 58.568C197.554 58.112 197.402 57.728 197.114 57.416C196.834 57.096 196.418 56.936 195.866 56.936C195.618 56.936 195.39 56.984 195.182 57.08C194.974 57.168 194.794 57.288 194.642 57.44C194.498 57.584 194.382 57.756 194.294 57.956C194.206 58.148 194.154 58.352 194.138 58.568H197.57ZM198.53 60.368C198.45 60.616 198.334 60.852 198.182 61.076C198.03 61.292 197.846 61.48 197.63 61.64C197.414 61.8 197.166 61.928 196.886 62.024C196.614 62.12 196.31 62.168 195.974 62.168C195.59 62.168 195.226 62.1 194.882 61.964C194.538 61.828 194.234 61.628 193.97 61.364C193.714 61.1 193.51 60.78 193.358 60.404C193.206 60.02 193.13 59.588 193.13 59.108C193.13 58.652 193.202 58.24 193.346 57.872C193.498 57.496 193.698 57.176 193.946 56.912C194.194 56.648 194.482 56.444 194.81 56.3C195.146 56.156 195.494 56.084 195.854 56.084C196.286 56.084 196.67 56.156 197.006 56.3C197.35 56.444 197.634 56.648 197.858 56.912C198.09 57.168 198.266 57.48 198.386 57.848C198.506 58.208 198.566 58.608 198.566 59.048C198.566 59.112 198.562 59.176 198.554 59.24C198.554 59.296 198.55 59.344 198.542 59.384H194.114V59.432C194.114 59.704 194.162 59.956 194.258 60.188C194.354 60.412 194.486 60.608 194.654 60.776C194.822 60.944 195.018 61.076 195.242 61.172C195.474 61.26 195.718 61.304 195.974 61.304C196.462 61.304 196.842 61.184 197.114 60.944C197.394 60.704 197.59 60.412 197.702 60.068L198.53 60.368ZM203.077 62V56.252H204.037V62H203.077ZM202.837 53.984C202.837 53.784 202.905 53.616 203.041 53.48C203.185 53.336 203.357 53.264 203.557 53.264C203.757 53.264 203.925 53.336 204.061 53.48C204.205 53.616 204.277 53.784 204.277 53.984C204.277 54.184 204.205 54.356 204.061 54.5C203.925 54.636 203.757 54.704 203.557 54.704C203.357 54.704 203.185 54.636 203.041 54.5C202.905 54.356 202.837 54.184 202.837 53.984ZM206.309 60.188C206.349 60.524 206.489 60.804 206.729 61.028C206.977 61.244 207.317 61.352 207.749 61.352C208.093 61.352 208.365 61.268 208.565 61.1C208.765 60.932 208.865 60.724 208.865 60.476C208.865 60.26 208.785 60.084 208.625 59.948C208.465 59.804 208.253 59.7 207.989 59.636L207.053 59.42C206.613 59.316 206.265 59.128 206.009 58.856C205.753 58.584 205.625 58.24 205.625 57.824C205.625 57.584 205.677 57.36 205.781 57.152C205.893 56.936 206.037 56.752 206.213 56.6C206.397 56.44 206.609 56.316 206.849 56.228C207.097 56.132 207.357 56.084 207.629 56.084C207.997 56.084 208.309 56.136 208.565 56.24C208.829 56.344 209.041 56.476 209.201 56.636C209.369 56.788 209.497 56.956 209.585 57.14C209.673 57.316 209.733 57.476 209.765 57.62L208.913 57.932C208.897 57.836 208.861 57.728 208.805 57.608C208.757 57.488 208.681 57.376 208.577 57.272C208.481 57.168 208.353 57.08 208.193 57.008C208.041 56.936 207.853 56.9 207.629 56.9C207.325 56.9 207.069 56.984 206.861 57.152C206.661 57.32 206.561 57.524 206.561 57.764C206.561 58.164 206.813 58.424 207.317 58.544L208.253 58.76C208.757 58.872 209.141 59.072 209.405 59.36C209.677 59.64 209.813 59.996 209.813 60.428C209.813 60.636 209.769 60.844 209.681 61.052C209.593 61.26 209.461 61.448 209.285 61.616C209.109 61.776 208.893 61.908 208.637 62.012C208.381 62.116 208.081 62.168 207.737 62.168C207.361 62.168 207.033 62.112 206.753 62C206.473 61.896 206.241 61.764 206.057 61.604C205.873 61.436 205.729 61.256 205.625 61.064C205.529 60.864 205.469 60.672 205.445 60.488L206.309 60.188ZM219.414 55.184C219.158 55.408 218.854 55.708 218.502 56.084C218.158 56.452 217.818 56.912 217.482 57.464C217.146 58.008 216.842 58.656 216.57 59.408C216.306 60.152 216.126 61.016 216.03 62H214.998C215.062 61.288 215.174 60.636 215.334 60.044C215.502 59.444 215.694 58.9 215.91 58.412C216.134 57.924 216.37 57.492 216.618 57.116C216.866 56.74 217.098 56.416 217.314 56.144C217.538 55.872 217.738 55.656 217.914 55.496C218.09 55.328 218.214 55.208 218.286 55.136H213.786V54.224H219.414V55.184ZM227.795 61.016C227.731 61.16 227.643 61.3 227.531 61.436C227.419 61.572 227.283 61.696 227.123 61.808C226.971 61.912 226.791 61.996 226.583 62.06C226.383 62.132 226.159 62.168 225.911 62.168C225.495 62.168 225.123 62.092 224.795 61.94C224.467 61.78 224.187 61.564 223.955 61.292C223.731 61.012 223.555 60.688 223.427 60.32C223.307 59.944 223.247 59.544 223.247 59.12C223.247 58.704 223.311 58.312 223.439 57.944C223.567 57.576 223.747 57.256 223.979 56.984C224.211 56.704 224.491 56.484 224.819 56.324C225.147 56.164 225.511 56.084 225.911 56.084C226.183 56.084 226.423 56.12 226.631 56.192C226.847 56.256 227.031 56.344 227.183 56.456C227.335 56.56 227.459 56.676 227.555 56.804C227.651 56.932 227.723 57.056 227.771 57.176V53.324H228.731V60.92C228.731 61.208 228.735 61.444 228.743 61.628C228.759 61.812 228.775 61.936 228.791 62H227.855C227.839 61.936 227.823 61.828 227.807 61.676C227.799 61.524 227.795 61.356 227.795 61.172V61.016ZM225.995 61.304C226.267 61.304 226.511 61.252 226.727 61.148C226.951 61.036 227.139 60.884 227.291 60.692C227.451 60.5 227.575 60.272 227.663 60.008C227.751 59.736 227.795 59.44 227.795 59.12C227.795 58.8 227.751 58.508 227.663 58.244C227.583 57.98 227.463 57.752 227.303 57.56C227.151 57.368 226.963 57.22 226.739 57.116C226.515 57.004 226.267 56.948 225.995 56.948C225.723 56.948 225.475 57.004 225.251 57.116C225.035 57.22 224.847 57.368 224.687 57.56C224.535 57.752 224.415 57.98 224.327 58.244C224.247 58.508 224.207 58.8 224.207 59.12C224.207 59.44 224.247 59.736 224.327 60.008C224.415 60.272 224.535 60.5 224.687 60.692C224.847 60.884 225.035 61.036 225.251 61.148C225.475 61.252 225.723 61.304 225.995 61.304ZM230.196 60.476C230.196 59.972 230.356 59.58 230.676 59.3C230.996 59.012 231.408 58.832 231.912 58.76L233.46 58.532C233.668 58.5 233.804 58.444 233.868 58.364C233.94 58.276 233.976 58.168 233.976 58.04C233.976 57.712 233.868 57.44 233.652 57.224C233.436 57.008 233.1 56.9 232.644 56.9C232.22 56.9 231.884 57.016 231.636 57.248C231.396 57.472 231.256 57.768 231.216 58.136L230.304 57.92C230.336 57.648 230.416 57.4 230.544 57.176C230.672 56.952 230.836 56.76 231.036 56.6C231.244 56.432 231.48 56.304 231.744 56.216C232.016 56.128 232.308 56.084 232.62 56.084C233.028 56.084 233.376 56.14 233.664 56.252C233.96 56.356 234.2 56.504 234.384 56.696C234.576 56.88 234.716 57.096 234.804 57.344C234.892 57.592 234.936 57.856 234.936 58.136V61.04C234.936 61.28 234.944 61.48 234.96 61.64C234.976 61.792 234.992 61.912 235.008 62H234.072C234.056 61.936 234.04 61.832 234.024 61.688C234.008 61.544 234 61.36 234 61.136C233.936 61.256 233.848 61.376 233.736 61.496C233.632 61.616 233.5 61.728 233.34 61.832C233.18 61.928 232.996 62.008 232.788 62.072C232.58 62.136 232.348 62.168 232.092 62.168C231.796 62.168 231.528 62.12 231.288 62.024C231.056 61.928 230.86 61.804 230.7 61.652C230.54 61.492 230.416 61.312 230.328 61.112C230.24 60.904 230.196 60.692 230.196 60.476ZM232.212 61.352C232.46 61.352 232.692 61.316 232.908 61.244C233.124 61.172 233.308 61.064 233.46 60.92C233.62 60.776 233.744 60.592 233.832 60.368C233.928 60.144 233.976 59.88 233.976 59.576V59.192L232.104 59.468C231.824 59.508 231.596 59.608 231.42 59.768C231.244 59.928 231.156 60.148 231.156 60.428C231.156 60.66 231.248 60.872 231.432 61.064C231.624 61.256 231.884 61.352 232.212 61.352ZM236.988 64.28L238.38 61.316L235.908 56.252H237.012L238.908 60.32L240.696 56.252H241.74L238.056 64.28H236.988Z" fill="#055160"/>
<rect x="0.5" y="0.5" width="523" height="77" rx="3.5" stroke="#C2EEF9"/>
</svg>
